<?xml version="1.0" encoding="utf-8"?>
<!-- Generator: Adobe Illustrator 27.8.1, SVG Export Plug-In . SVG Version: 6.00 Build 0)  -->
<svg version="1.1" id="Layer_2_00000019639538972242950900000004809056433044347280_"
	 xmlns="http://www.w3.org/2000/svg" xmlns:xlink="http://www.w3.org/1999/xlink" x="0px" y="0px" viewBox="0 0 845.9 364.2"
	 style="enable-background:new 0 0 845.9 364.2;" xml:space="preserve">
<style type="text/css">
	.st0{fill:none;stroke:#000000;stroke-miterlimit:10;}
	.st1{fill:#A0E259;stroke:#000000;stroke-miterlimit:10;}
	.st2{fill:none;stroke:#000000;stroke-miterlimit:10;stroke-dasharray:0,0,6.94,6.94;}
	.st3{fill:none;stroke:#000000;stroke-miterlimit:10;stroke-dasharray:0,0,7.06,7.06;}
	.st4{fill:none;stroke:#000000;stroke-width:0.5;stroke-miterlimit:10;}
</style>
<g id="Layer_1-2">
	<g id="Map">
		<rect id="SPACE5" x="48.3" y="110.2" class="st0" width="36.9" height="21.8"/>
		<rect id="SPACE6" x="127.2" y="108.2" class="st0" width="36.9" height="21.8"/>
		<rect id="SPACE7" x="128.5" y="142" class="st0" width="36.9" height="21.8"/>
		<rect id="SPACE8" x="129.2" y="175.7" class="st0" width="36.9" height="21.8"/>
		<rect id="SPACE10" x="176.8" y="140.6" class="st0" width="36.9" height="21.8"/>
		<rect id="SPACE9" x="177.9" y="174.2" class="st0" width="36.9" height="21.8"/>
		<rect id="SPACE11" x="251.4" y="138.4" class="st0" width="36.9" height="21.8"/>
		<rect id="SPACE4" x="49.2" y="143.9" class="st0" width="36.9" height="21.8"/>
		<rect id="SPACE3" x="50.8" y="177.5" class="st0" width="36.9" height="21.8"/>
		<rect id="SPACE2" x="52.3" y="220.6" class="st0" width="36.9" height="21.8"/>
		<rect id="SPACE1" x="53.9" y="254.9" class="st0" width="36.9" height="21.8"/>
		<line class="st0" x1="82.8" y1="110.2" x2="82.8" y2="132"/>
		<line class="st0" x1="83.7" y1="143.9" x2="83.7" y2="165.6"/>
		<line class="st0" x1="85.2" y1="177.5" x2="85.2" y2="199.3"/>
		<line class="st0" x1="86.1" y1="220.6" x2="86.1" y2="242.4"/>
		<line class="st0" x1="87.7" y1="254.9" x2="87.7" y2="276.6"/>
		<line class="st0" x1="129.9" y1="108.2" x2="129.9" y2="130"/>
		<line class="st0" x1="131" y1="142" x2="131" y2="163.7"/>
		<line class="st0" x1="131.7" y1="175.7" x2="131.7" y2="197.5"/>
		<line class="st0" x1="211.4" y1="140.6" x2="211.4" y2="162.4"/>
		<line class="st0" x1="212.2" y1="174.2" x2="212.2" y2="196"/>
		<line class="st0" x1="253.9" y1="138.4" x2="253.9" y2="160.2"/>
		<rect id="SPACE12" x="252.5" y="172.3" class="st0" width="36.9" height="21.8"/>
		<line class="st0" x1="255" y1="172.3" x2="255" y2="194"/>
		<rect id="SPACE13" x="301.4" y="159.1" class="st0" width="21.8" height="36.9"/>
		<line class="st0" x1="301.4" y1="193.4" x2="323.1" y2="193.4"/>
		<rect id="SPACE14" x="335.6" y="157.3" class="st0" width="21.8" height="36.9"/>
		<line class="st0" x1="335.6" y1="191.7" x2="357.4" y2="191.7"/>
		<rect id="SPACE15" x="369.1" y="157.3" class="st0" width="21.8" height="36.9"/>
		<line class="st0" x1="369.1" y1="191.7" x2="390.8" y2="191.7"/>
		<rect id="SPACE16" x="403.1" y="154.8" class="st0" width="21.8" height="36.9"/>
		<line class="st0" x1="403.1" y1="189.1" x2="424.9" y2="189.1"/>
		<rect id="SPACE17" x="437.1" y="154.8" class="st0" width="21.8" height="36.9"/>
		<line class="st0" x1="437.1" y1="189.1" x2="458.8" y2="189.1"/>
		
			<rect id="SPACE18" x="466.1" y="162.4" transform="matrix(0.1676 -0.9859 0.9859 0.1676 232.5243 621.8972)" class="st0" width="36.9" height="21.8"/>
		<line class="st0" x1="471.1" y1="187.1" x2="492.6" y2="190.8"/>
		
			<rect id="SPACE19" x="532.2" y="159.9" transform="matrix(0.4755 -0.8797 0.8797 0.4755 138.6299 574.0167)" class="st0" width="36.9" height="21.8"/>
		<line class="st0" x1="533.5" y1="179.6" x2="552.7" y2="189.9"/>
		
			<rect id="SPACE20" x="561.8" y="193.4" transform="matrix(0.8836 -0.4682 0.4682 0.8836 -28.1345 295.4916)" class="st0" width="36.9" height="21.8"/>
		<line class="st0" x1="561.1" y1="202.2" x2="571.3" y2="221.4"/>
		<rect id="SPACE21" x="578.5" y="235.7" class="st0" width="36.9" height="21.8"/>
		<line class="st0" x1="581" y1="235.7" x2="581" y2="257.5"/>
		<rect id="SPACE22" x="468.2" y="243.1" class="st0" width="36.9" height="21.8"/>
		<line class="st0" x1="502.6" y1="264.8" x2="502.6" y2="243.1"/>
		<rect id="SPACE23" x="434.4" y="228.1" class="st0" width="21.8" height="36.9"/>
		<line class="st0" x1="456.2" y1="230.6" x2="434.4" y2="230.6"/>
		<rect id="SPACE24" x="400.3" y="228.7" class="st0" width="21.8" height="36.9"/>
		<line class="st0" x1="422.1" y1="231.2" x2="400.3" y2="231.2"/>
		<rect id="SPACE25" x="366.7" y="229.7" class="st0" width="21.8" height="36.9"/>
		<line class="st0" x1="388.5" y1="232.3" x2="366.7" y2="232.3"/>
		<rect id="SPACE26" x="332.6" y="231.2" class="st0" width="21.8" height="36.9"/>
		<line class="st0" x1="354.4" y1="233.7" x2="332.6" y2="233.7"/>
		<rect id="SPACE27" x="298.4" y="232.3" class="st0" width="21.8" height="36.9"/>
		<line class="st0" x1="320.2" y1="234.8" x2="298.4" y2="234.8"/>
		<rect id="SPACE28" x="264.8" y="233.8" class="st0" width="21.8" height="36.9"/>
		<line class="st0" x1="286.5" y1="236.3" x2="264.8" y2="236.3"/>
		<rect id="SPACE29" x="230.7" y="234.8" class="st0" width="21.8" height="36.9"/>
		<line class="st0" x1="252.5" y1="237.3" x2="230.7" y2="237.3"/>
		<rect id="SPACE30" x="197.1" y="234.8" class="st0" width="21.8" height="36.9"/>
		<line class="st0" x1="218.8" y1="237.3" x2="197.1" y2="237.3"/>
		<rect id="SPACE31" x="162.7" y="237.3" class="st0" width="21.8" height="36.9"/>
		<line class="st0" x1="184.5" y1="239.8" x2="162.7" y2="239.8"/>
		<rect id="SPACE32" x="129.2" y="237.3" class="st0" width="21.8" height="36.9"/>
		<line class="st0" x1="151" y1="239.8" x2="129.2" y2="239.8"/>
		<polygon class="st0" points="16.2,41.5 12,302.8 770,276.6 601.1,55.1 561.1,82.3 533.5,114.9 505.1,134.5 		"/>
		<path class="st0" d="M89.6,222.2h7.2c3,0,2.8-3.5,2.8-3.5l-0.8-18.9c0,0,0.2-3.2-2.8-3.2h-8.3 M90.8,256.5h7.4
			c3,0,2.8-3.6,2.8-3.6l-0.3-10.5c0,0,0.2-3.2-2.8-3.2h-8.3 M80,316.8c20.4,0,22.4-21.6,22.4-21.6l-0.5-18.5c0,0,0.2-3.2-2.8-3.2
			h-8.3 M87.7,180.1H96c3,0,2.8-3.2,2.8-3.2l-0.2-10.7c0,0,0.2-3.2-2.8-3.2h-9.7 M128.5,179h-13.6c-3,0-2.8-3.2-2.8-3.2V165
			c0,0-0.2-3.2,2.8-3.2h13.6 M97.2,143.9c0.1-1.5,3.4-23.6-4.8-26.9s-8.1-13.5-8.1-13.5c0-10.8,9.7-11.8,9.7-11.8h16.8v16.6
			c0,0-0.2,3.2,2.8,3.2h13.6 M128.5,145.2h-13.6c-3,0-2.8-3.2-2.8-3.2v-10.4c0,0-0.2-3.9,2.6-3.9h12.5 M214.8,192.3
			c0,0,7.8,0.1,9.1,0c2.2,0,2.8,1.6,2,6.2c-2.3,9.1-13.8,10.7-16.4,11s-69.8,2.9-82.2,2.2s-12.7-12.9-12.7-12.9s-0.2-3.2,2.4-3.2
			h11.6 M97.8,128.8H85.2 M86.1,146.5h8.3c3,0,2.8-3.2,2.8-3.2"/>
		<path class="st0" d="M136,315.2c0,0-19,0.7-20-19.5s-1.4-55-1.4-55s1.1-10.9,12.5-14.5c4.4-1,4,3.4,4,4.1v7"/>
		<path class="st0" d="M147.6,237.3v-8.6c0,0-0.4-3.5,2.8-3.5h11.1c0,0,3.1-0.2,3.1,3.2v8.9"/>
		<path class="st0" d="M181.6,237.3v-10c0,0-0.3-3.2,2.5-3.2h11.1c0,0,3.1-0.5,3.1,2.4v8.3"/>
		<path class="st0" d="M215.8,234.8v-9c0,0-0.6-2.6,3.1-2.6h10.5c0,0,2.6-0.2,2.6,2.6v9"/>
		<path class="st0" d="M249.4,234.8v-9.1c0,0-0.3-3.3,3.3-3.3H263c0,0,3.4-0.4,3.4,3.4v8.1"/>
		<path class="st0" d="M283.2,233.7v-9.4c0,0-0.6-3.2,3.2-3.2h10.8c0,0,3-0.4,3,3v8.1"/>
		<path class="st0" d="M317.5,232.3v-8.9c0,0-0.7-2.9,2.9-2.9s11.1-0.4,11.1-0.4s2.8-0.4,2.8,2.8v8.2"/>
		<path class="st0" d="M351.4,231.2v-8.8c0,0-0.8-3.2,3.2-3.2h10.9c0,0,2.8-0.6,2.8,2.8v7.8"/>
		<path class="st0" d="M385,229.7v-8.6c0,0-0.2-2.9,2.9-2.9h10.8c0,0,3.6-0.6,3.6,3.6v6.8"/>
		<path class="st0" d="M419.1,228.7v-8.5c0,0-0.3-2.9,2.9-2.9h10.7c0,0,3.2-0.6,3.2,3.2v7.6"/>
		<path class="st0" d="M452.9,228.1v-8.8c0,0-0.3-2.9,2.9-2.9s34.1-0.2,46.8,8.8s14,10.1,15.1,11.4c1,1.1,3.5,4,1.2,6
			c-0.7,0.6-1.7,0.9-2.6,1c-5.4,0.2-11.1,0.4-11.1,0.4"/>
		<path class="st0" d="M505.1,260.4h25.1c0,0,2.1-0.6,2.8,2.1s2.4,7.2,2.3,14.1s-0.1,10.6-0.4,12.5s-5.8,13.5-17.7,14.1"/>
		<path class="st0" d="M214.8,176.2h7.5c0,0,4.4,0.5,4.4-4.1v-9.3c0,0,0.2-3.9-3.9-3.9h-9.2"/>
		<path class="st0" d="M213.6,142.1h3.1c0,0,3.6,0.5,3.6-3.9c0-0.6-0.9-1.7-0.9-1.7s-6.9-2.6-6.9-11.2s5.9-12.9,10.2-12.9h16.2v24.7
			c0,0-0.1,4.5,4.5,4.5h8"/>
		<path class="st0" d="M251.4,157.9h-7.3c0,0-4-0.3-4,4v10.1c0,0,0,3.4,2.9,3.4h9.5"/>
		<path class="st0" d="M252.5,191.9h-7c0,0-3.6-0.1-3.6,3.6s3.9,12.4,13.1,12.4h44.9c0,0,4.2,0.1,4.2-4.2V196"/>
		<path class="st0" d="M321,196v6.4c0,0,0.1,4.1,4.1,4.1h9.6c0,0,3.7,0.2,3.7-3.7v-8.5"/>
		<path class="st0" d="M354.8,194.2v7.1c0,0,0,3.8,3.8,3.8h9.8c0,0,3.8,0.3,3.8-3.8v-7.1"/>
		<path class="st0" d="M388.9,194.2v5.4c0,0-0.3,4.6,4.6,4.6h8.1c0,0,4.2,0.3,4.2-4.2v-8.4"/>
		<path class="st0" d="M422.9,191.7v7.8c0,0,0,3.9,3.9,3.9h9.1c0,0,4,0.1,4-4.1v-7.6"/>
		<path class="st0" d="M457,191.7v7.1c0,0,0,4.1,4,4.1h6.2c0,0,3.4,0.7,4.2-4.2s1.6-8.7,1.6-8.7"/>
		<path class="st0" d="M489.9,192.9l-1.5,6.7c0,0-1.6,5.4,1.2,5.4s3.6,0.2,5.3-0.6s10.8-8.4,22.8-7.9c7.7,0.3,9.2,0.7,11.3-2.1
			c2.9-5.2,6.1-11,6.1-11"/>
		<path class="st0" d="M549.9,191.3l-5.6,10.5c0,0-2,3.3,0,5.3l2,2c0,0,1.6,1.7,4.5,0.6s8.8-4.7,8.8-4.7"/>
		<path class="st0" d="M567.5,219.7l-7.8,4.2c0,0-3.8,1.9-3.1,6.3s0.1,7.8,5,8s16.9,0,16.9,0"/>
		<path class="st0" d="M578.5,254.6H554c0,0-5.3-0.1-5.3,6.4s1.3,23.1,1.7,24.5s0.7,15.5,15.8,15.5"/>
		<path class="st1" d="M89.2,281.6v2c0,1.2-1,2.3-2.3,2.3H41c-3.4,0-6.1-2.8-6-6.1l2.4-206c0-3.2,2.9-5.5,6-4.9L437.6,143
			c2,0.4,3.5,2.1,3.5,4.2l0,0c0,2.3-1.9,4.2-4.2,4.3l-105.6,2.2c-3.5,0.1-7.1-0.8-10.2-2.4l-73.4-39.1c-2.4-1.3-5.1-2-7.9-2.1
			l-17.9-0.7c-3-0.1-6,1.1-8,3.3l-11,11.7c-1.9,2-4.4,3.1-7.1,3.1h-3c-2.7,0-5.3-1.1-7.1-3.1l-15.8-16.8c-2.4-2.6-5.4-4.4-8.8-5.4
			l-53.7-16.3c-3.7-1.1-7.7-0.9-11.3,0.6l-46.5,19.8c-2.9,1.2-4.8,4.1-4.7,7.3l4.2,160c0.1,3.3,2.8,5.9,6,5.9l31.9,0
			C88.2,279.3,89.2,280.3,89.2,281.6L89.2,281.6z"/>
		<path class="st1" d="M123,282.3L123,282.3c0-1.2,0.9-2.1,2.1-2.2l402.8-13.4c1.8-0.1,3.4,1.4,3.4,3.2v2.4c0,1.8-1.4,3.2-3.2,3.3
			l-402.8,8.8C124,284.5,123,283.5,123,282.3L123,282.3z"/>
		<path class="st1" d="M552.7,268.3v2.8c0,1.7,1.4,3,3.1,3l143.1-6.1c2.5-0.1,4.8-1.3,6.4-3.3l0,0c2-2.6,2-6.1,0-8.7L596.5,111.5
			c-2.7-3.6-7.7-4.3-11.3-1.7l-26.6,19.1c-3.2,2.3-3.8,6.7-1.3,9.8L614,209c2.2,2.8,3.5,6.1,3.7,9.7l1.9,35.7
			c0.1,2.6-1.8,4.9-4.4,5.1l-59.8,5.9C553.8,265.5,552.7,266.8,552.7,268.3L552.7,268.3z"/>
		<path d="M70.1,263.3l-0.7,0.5l-0.7-1.1l1.7-1.2h1.2v6.3h-1.5L70.1,263.3L70.1,263.3z"/>
		<path d="M67.7,233.8l2.3-2.4c0.1-0.1,0.2-0.2,0.3-0.3c0.2-0.2,0.3-0.4,0.3-0.7c0-0.4-0.2-0.6-0.7-0.6c-0.5,0-0.8,0.3-0.8,0.8
			l-1.4-0.1c0-1.2,0.8-2,2.2-2s2.2,0.8,2.2,1.9c0,0.5-0.2,0.9-0.5,1.3c-0.2,0.2-0.3,0.4-0.5,0.5l-1.2,1.3h2.2v1.4h-4.4L67.7,233.8
			L67.7,233.8z"/>
		<path d="M67.2,189.6c0.1,0.4,0.3,0.6,0.8,0.6c0.6,0,0.8-0.3,0.8-0.7c0-0.4-0.3-0.6-0.9-0.6h-0.6v-1.2h0.6c0.6,0,0.8-0.2,0.8-0.6
			s-0.3-0.6-0.8-0.6c-0.4,0-0.7,0.2-0.8,0.6l-1.5-0.1c0.1-1,0.9-1.8,2.3-1.8s2.2,0.8,2.2,1.8c0,0.4-0.2,0.8-0.4,1
			c-0.1,0.1-0.3,0.2-0.4,0.3c0.2,0.1,0.3,0.2,0.5,0.3c0.2,0.2,0.5,0.6,0.5,1.2c0,1-0.8,1.8-2.3,1.8s-2.3-0.9-2.4-1.9L67.2,189.6
			L67.2,189.6z"/>
		<path d="M64.8,155.7l2.5-3.9H69v3.8h0.7v1.4H69v1.1h-1.5V157h-2.8L64.8,155.7L64.8,155.7z M67.5,155.6v-2l-1.3,2H67.5z"/>
		<path d="M65.2,121.9c0,0.1,0.1,0.2,0.2,0.3c0.1,0.2,0.3,0.3,0.7,0.3c0.5,0,0.9-0.4,0.9-0.9s-0.4-0.9-0.9-0.9
			c-0.3,0-0.5,0.1-0.7,0.2c-0.1,0.1-0.1,0.2-0.2,0.2h-1.3l0.4-3.8H68v1.4h-2.4l-0.1,0.8c0.1-0.1,0.2-0.1,0.2-0.1
			c0.2-0.1,0.4-0.1,0.6-0.1c1.2,0,2.2,1,2.2,2.2s-1,2.2-2.4,2.2c-1.3,0-2.2-0.8-2.3-1.8L65.2,121.9L65.2,121.9z"/>
		<path d="M146.8,115.5h1.5l-1.4,2c1.2-0.1,2.3,0.9,2.3,2.2s-1,2.2-2.4,2.2s-2.4-1-2.4-2.2c0-0.4,0.1-0.9,0.3-1.2
			c0.1-0.2,0.2-0.3,0.3-0.5C145.2,118,146.8,115.5,146.8,115.5z M147.8,119.7c0-0.6-0.4-1-0.9-1s-0.9,0.4-0.9,1s0.4,1,0.9,1
			S147.8,120.2,147.8,119.7z"/>
		<path d="M148.2,150.8h-2.6v-1.4h4.2v1.2l-2.4,5.2h-1.6L148.2,150.8z"/>
		<path d="M147.3,186.4c0.1-0.1,0.3-0.3,0.5-0.4c-0.1-0.1-0.3-0.2-0.4-0.3c-0.2-0.2-0.4-0.5-0.4-0.9c0-0.9,0.8-1.7,2.1-1.7
			s2.1,0.8,2.1,1.7c0,0.4-0.2,0.7-0.4,0.9c-0.1,0.1-0.2,0.2-0.4,0.3c0.2,0.1,0.4,0.2,0.5,0.4c0.2,0.2,0.5,0.6,0.5,1.2
			c0,1-0.9,1.9-2.4,1.9s-2.4-0.9-2.4-1.9C146.8,187,147,186.6,147.3,186.4z M149.1,188.3c0.6,0,0.9-0.4,0.9-0.8s-0.3-0.8-0.9-0.8
			s-0.9,0.4-0.9,0.8S148.6,188.3,149.1,188.3z M149.1,185.5c0.4,0,0.7-0.2,0.7-0.6s-0.3-0.6-0.7-0.6c-0.4,0-0.7,0.3-0.7,0.6
			C148.4,185.2,148.8,185.5,149.1,185.5z"/>
		<path d="M195.4,186.4c-1.2,0.1-2.3-0.9-2.3-2.2s1-2.2,2.4-2.2s2.4,1,2.4,2.2c0,0.4-0.1,0.9-0.3,1.2c-0.1,0.2-0.2,0.4-0.3,0.5
			l-1.7,2.5h-1.5L195.4,186.4z M196.4,184.2c0-0.6-0.4-1-0.9-1s-0.9,0.4-0.9,1s0.4,1,0.9,1S196.4,184.8,196.4,184.2z"/>
		<g>
			<path d="M191.6,149.9l-0.6,0.4l-0.7-1.1l1.7-1.2h1.2v6.3h-1.5L191.6,149.9L191.6,149.9z"/>
			<path d="M196.7,148.1c1.5,0,2.7,1.2,2.7,3.2s-1.2,3.2-2.7,3.2s-2.7-1.2-2.7-3.2S195.2,148.1,196.7,148.1z M196.7,149.5
				c-0.6,0-1.3,0.6-1.3,1.8s0.6,1.8,1.3,1.8s1.3-0.6,1.3-1.8S197.4,149.5,196.7,149.5z"/>
		</g>
		<g>
			<path d="M268.2,147.5l-0.6,0.4l-0.7-1.1l1.7-1.2h1.2v6.3h-1.5L268.2,147.5L268.2,147.5z"/>
			<path d="M271.7,147.5l-0.6,0.4l-0.7-1.1l1.7-1.2h1.2v6.3h-1.5L271.7,147.5L271.7,147.5z"/>
		</g>
		<g>
			<path d="M269.9,181.6l-0.6,0.4l-0.7-1.1l1.7-1.2h1.2v6.3h-1.5L269.9,181.6L269.9,181.6z"/>
			<path d="M272.3,185.1l2.3-2.4c0.1-0.1,0.2-0.2,0.3-0.3c0.1-0.2,0.3-0.4,0.3-0.7c0-0.4-0.2-0.6-0.7-0.6c-0.5,0-0.8,0.3-0.8,0.8
				l-1.4-0.1c0-1.2,0.9-2,2.2-2s2.2,0.8,2.2,1.9c0,0.5-0.2,0.9-0.5,1.3c-0.1,0.2-0.3,0.4-0.5,0.5l-1.2,1.3h2.2v1.4h-4.4L272.3,185.1
				L272.3,185.1z"/>
		</g>
		<g>
			<path d="M309.1,173.7l-0.6,0.4l-0.7-1.1l1.7-1.2h1.2v6.3h-1.5L309.1,173.7L309.1,173.7z"/>
			<path d="M312.9,176.4c0,0.4,0.3,0.6,0.9,0.6c0.6,0,0.9-0.3,0.9-0.7c0-0.4-0.3-0.6-0.9-0.6h-0.6v-1.2h0.6c0.6,0,0.8-0.2,0.8-0.6
				s-0.3-0.6-0.8-0.6c-0.5,0-0.7,0.2-0.8,0.6l-1.5-0.1c0-1,0.9-1.8,2.3-1.8s2.2,0.8,2.2,1.8c0,0.4-0.2,0.8-0.4,1
				c-0.1,0.1-0.3,0.2-0.4,0.3c0.2,0.1,0.4,0.2,0.5,0.3c0.2,0.2,0.5,0.6,0.5,1.2c0,1-0.9,1.8-2.3,1.8s-2.3-0.9-2.4-1.9L312.9,176.4
				L312.9,176.4z"/>
		</g>
		<g>
			<path d="M343.3,173l-0.6,0.4l-0.7-1.1l1.7-1.2h1.2v6.3h-1.5L343.3,173L343.3,173z"/>
			<path d="M345.5,175.1l2.5-3.9h1.7v3.8h0.6v1.4h-0.6v1.1h-1.5v-1.1h-2.8L345.5,175.1L345.5,175.1z M348.3,175v-2l-1.3,2H348.3z"/>
		</g>
		<g>
			<path d="M377.2,172.1l-0.6,0.4l-0.7-1.1l1.7-1.2h1.2v6.3h-1.5L377.2,172.1L377.2,172.1z"/>
			<path d="M381.1,174.8c0,0.1,0.1,0.2,0.2,0.3c0.1,0.1,0.3,0.3,0.7,0.3c0.5,0,0.9-0.4,0.9-0.9s-0.4-0.9-0.9-0.9
				c-0.3,0-0.5,0.1-0.7,0.2c-0.1,0.1-0.1,0.2-0.2,0.2h-1.3l0.4-3.8h3.7v1.4h-2.5l-0.1,0.9c0.1-0.1,0.1-0.1,0.2-0.1
				c0.1-0.1,0.4-0.1,0.6-0.1c1.2,0,2.2,1,2.2,2.2s-1,2.2-2.4,2.2c-1.3,0-2.1-0.9-2.3-1.8L381.1,174.8L381.1,174.8z"/>
		</g>
		<g>
			<path d="M411.3,170.9l-0.6,0.4l-0.7-1.1l1.7-1.2h1.2v6.3h-1.5L411.3,170.9L411.3,170.9z"/>
			<path d="M415.9,169h1.5l-1.4,2c1.2-0.1,2.3,0.9,2.3,2.2s-1,2.2-2.4,2.2s-2.4-1-2.4-2.2c0-0.4,0.1-0.9,0.3-1.2
				c0.1-0.2,0.2-0.4,0.3-0.5L415.9,169L415.9,169z M416.9,173.2c0-0.6-0.4-1-0.9-1s-0.9,0.4-0.9,1s0.4,1,0.9,1
				S416.9,173.8,416.9,173.2z"/>
		</g>
		<g>
			<path d="M445,169.4l-0.6,0.4l-0.7-1.1l1.7-1.2h1.2v6.3H445L445,169.4L445,169.4z"/>
			<path d="M450,169.1h-2.6v-1.4h4.2v1.2l-2.4,5.2h-1.6L450,169.1z"/>
		</g>
		<g>
			<path d="M482.3,170.5l-0.6,0.4l-0.7-1.1l1.7-1.2h1.2v6.3h-1.5L482.3,170.5L482.3,170.5z"/>
			<path d="M485.2,172c0.1-0.1,0.3-0.3,0.5-0.4c-0.1-0.1-0.3-0.2-0.4-0.3c-0.2-0.2-0.4-0.5-0.4-0.9c0-0.9,0.8-1.7,2.1-1.7
				s2.1,0.8,2.1,1.7c0,0.4-0.2,0.7-0.4,0.9c-0.1,0.1-0.2,0.2-0.4,0.3c0.2,0.1,0.4,0.2,0.5,0.4c0.2,0.2,0.5,0.6,0.5,1.2
				c0,1-0.9,1.9-2.4,1.9s-2.4-0.9-2.4-1.9C484.7,172.6,484.9,172.2,485.2,172z M487,173.9c0.6,0,0.9-0.4,0.9-0.8s-0.3-0.8-0.9-0.8
				s-0.9,0.4-0.9,0.8S486.5,173.9,487,173.9z M487,171.1c0.4,0,0.7-0.2,0.7-0.6s-0.3-0.6-0.7-0.6c-0.5,0-0.7,0.3-0.7,0.6
				C486.3,170.8,486.6,171.1,487,171.1z"/>
		</g>
		<g>
			<path d="M548.7,168l-0.7,0.4l-0.7-1.1l1.7-1.2h1.2v6.3h-1.5L548.7,168L548.7,168z"/>
			<path d="M553.4,170.6c-1.2,0.1-2.3-0.9-2.3-2.2s1-2.2,2.4-2.2s2.4,1,2.4,2.2c0,0.4-0.2,0.9-0.3,1.2c-0.1,0.2-0.2,0.4-0.3,0.5
				l-1.7,2.5H552L553.4,170.6z M554.3,168.4c0-0.6-0.4-1-0.9-1s-0.9,0.4-0.9,1s0.4,1,0.9,1S554.3,169,554.3,168.4z"/>
		</g>
		<g>
			<path d="M576.3,205.6l2.3-2.4c0.1-0.1,0.2-0.2,0.3-0.3c0.2-0.2,0.3-0.4,0.3-0.7c0-0.4-0.2-0.6-0.7-0.6c-0.5,0-0.8,0.3-0.8,0.8
				l-1.4-0.1c0-1.2,0.8-2,2.2-2s2.2,0.8,2.2,1.9c0,0.5-0.2,0.9-0.5,1.3c-0.2,0.2-0.3,0.4-0.5,0.5l-1.2,1.3h2.2v1.4h-4.4L576.3,205.6
				L576.3,205.6z"/>
			<path d="M584.2,200.2c1.5,0,2.7,1.2,2.7,3.2s-1.2,3.2-2.7,3.2s-2.7-1.2-2.7-3.2S582.7,200.2,584.2,200.2z M584.2,201.7
				c-0.7,0-1.3,0.6-1.3,1.8s0.6,1.8,1.3,1.8s1.3-0.6,1.3-1.8S584.8,201.7,584.2,201.7z"/>
		</g>
		<g>
			<path d="M592.4,247.9l2.3-2.4c0.1-0.1,0.2-0.2,0.3-0.3c0.2-0.2,0.3-0.4,0.3-0.7c0-0.4-0.2-0.6-0.7-0.6c-0.5,0-0.8,0.3-0.8,0.8
				l-1.4-0.1c0-1.2,0.8-2,2.2-2s2.2,0.8,2.2,1.9c0,0.5-0.2,0.9-0.5,1.3c-0.2,0.2-0.3,0.4-0.5,0.5l-1.2,1.3h2.2v1.4h-4.4L592.4,247.9
				L592.4,247.9z"/>
			<path d="M598.5,244.4l-0.7,0.4l-0.7-1.1l1.7-1.2h1.2v6.3h-1.5L598.5,244.4L598.5,244.4z"/>
		</g>
		<g>
			<path d="M481.6,255l2.3-2.4c0.1-0.1,0.2-0.2,0.3-0.3c0.1-0.2,0.3-0.4,0.3-0.7c0-0.4-0.2-0.6-0.7-0.6c-0.5,0-0.8,0.3-0.8,0.8
				l-1.4-0.1c0-1.2,0.9-2,2.2-2s2.2,0.8,2.2,1.9c0,0.5-0.2,0.9-0.5,1.3c-0.1,0.2-0.3,0.4-0.5,0.5l-1.2,1.3h2.2v1.4h-4.4L481.6,255
				L481.6,255z"/>
			<path d="M486.8,255l2.3-2.4c0.1-0.1,0.2-0.2,0.3-0.3c0.1-0.2,0.3-0.4,0.3-0.7c0-0.4-0.2-0.6-0.7-0.6c-0.5,0-0.8,0.3-0.8,0.8
				l-1.4-0.1c0-1.2,0.9-2,2.2-2s2.2,0.8,2.2,1.9c0,0.5-0.2,0.9-0.5,1.3c-0.1,0.2-0.3,0.4-0.5,0.5l-1.2,1.3h2.2v1.4h-4.4L486.8,255
				L486.8,255z"/>
		</g>
		<g>
			<path d="M440.3,250.3l2.3-2.4c0.1-0.1,0.2-0.2,0.3-0.3c0.1-0.2,0.3-0.4,0.3-0.7c0-0.4-0.2-0.6-0.7-0.6c-0.5,0-0.8,0.3-0.8,0.8
				l-1.4-0.1c0-1.2,0.9-2,2.2-2s2.2,0.8,2.2,1.9c0,0.5-0.2,0.9-0.5,1.3c-0.1,0.2-0.3,0.4-0.5,0.5l-1.2,1.3h2.2v1.4h-4.4L440.3,250.3
				L440.3,250.3z"/>
			<path d="M446.7,249.4c0,0.4,0.3,0.6,0.9,0.6c0.6,0,0.9-0.3,0.9-0.7c0-0.4-0.3-0.6-0.9-0.6h-0.6v-1.2h0.6c0.6,0,0.8-0.2,0.8-0.6
				s-0.3-0.6-0.8-0.6c-0.5,0-0.7,0.2-0.8,0.6l-1.5-0.1c0-1,0.9-1.8,2.3-1.8s2.2,0.8,2.2,1.8c0,0.4-0.2,0.8-0.4,1
				c-0.1,0.1-0.3,0.2-0.4,0.3c0.2,0.1,0.4,0.2,0.5,0.3c0.2,0.2,0.5,0.6,0.5,1.2c0,1-0.9,1.8-2.3,1.8s-2.3-0.9-2.4-1.9L446.7,249.4
				L446.7,249.4z"/>
		</g>
		<g>
			<path d="M406.5,251l2.3-2.4c0.1-0.1,0.2-0.2,0.3-0.3c0.1-0.2,0.3-0.4,0.3-0.7c0-0.4-0.2-0.6-0.7-0.6c-0.5,0-0.8,0.3-0.8,0.8
				l-1.4-0.1c0-1.2,0.9-2,2.2-2s2.2,0.8,2.2,1.9c0,0.5-0.2,0.9-0.5,1.3c-0.1,0.2-0.3,0.4-0.5,0.5l-1.2,1.3h2.2v1.4h-4.4L406.5,251
				L406.5,251z"/>
			<path d="M411.3,249.6l2.5-3.9h1.7v3.8h0.6v1.4h-0.6v1.1H414v-1.1h-2.8L411.3,249.6L411.3,249.6z M414,249.5v-2l-1.3,2H414z"/>
		</g>
		<g>
			<path d="M372.5,251.9l2.3-2.4c0.1-0.1,0.2-0.2,0.3-0.3c0.1-0.2,0.3-0.4,0.3-0.7c0-0.4-0.2-0.6-0.7-0.6c-0.5,0-0.8,0.3-0.8,0.8
				l-1.4-0.1c0-1.2,0.9-2,2.2-2s2.2,0.8,2.2,1.9c0,0.5-0.2,0.9-0.5,1.3c-0.1,0.2-0.3,0.4-0.5,0.5l-1.2,1.3h2.2v1.4h-4.4L372.5,251.9
				L372.5,251.9z"/>
			<path d="M379.1,251c0,0.1,0.1,0.2,0.2,0.3c0.1,0.1,0.3,0.3,0.7,0.3c0.5,0,0.9-0.4,0.9-0.9s-0.4-0.9-0.9-0.9
				c-0.3,0-0.5,0.1-0.7,0.2c-0.1,0.1-0.1,0.2-0.2,0.2h-1.3l0.4-3.8h3.7v1.4h-2.5l-0.1,0.9c0.1-0.1,0.1-0.1,0.2-0.1
				c0.1-0.1,0.4-0.1,0.6-0.1c1.2,0,2.2,1,2.2,2.2s-1,2.2-2.4,2.2c-1.3,0-2.1-0.9-2.3-1.8L379.1,251L379.1,251z"/>
		</g>
		<g>
			<path d="M322.7,319.7c0,0.1,0.1,0.2,0.2,0.3c0.1,0.1,0.4,0.3,0.7,0.3c0.5,0,0.9-0.4,0.9-0.9c0-0.5-0.4-0.9-0.9-0.9
				c-0.3,0-0.5,0.1-0.7,0.3c-0.1,0.1-0.1,0.2-0.2,0.3l-1.3,0l0.3-3.8l3.7-0.1l0,1.4l-2.5,0.1l-0.1,0.9c0.1,0,0.1-0.1,0.2-0.1
				c0.1-0.1,0.4-0.1,0.6-0.1c1.2,0,2.2,0.9,2.2,2.1c0,1.2-0.9,2.2-2.3,2.3c-1.3,0-2.2-0.8-2.4-1.7L322.7,319.7L322.7,319.7z"/>
			<path d="M329.1,314.9c1.5,0,2.8,1.1,2.8,3.1c0.1,2-1.1,3.3-2.6,3.3s-2.8-1.1-2.8-3.1C326.5,316.2,327.6,314.9,329.1,314.9z
				 M329.2,316.3c-0.6,0-1.2,0.7-1.2,1.9c0,1.2,0.7,1.8,1.3,1.8c0.6,0,1.2-0.6,1.2-1.9C330.5,316.9,329.8,316.3,329.2,316.3
				L329.2,316.3z"/>
			<path d="M334.2,316.2l-1.8,0.1l0-1.4l5.1-0.2l0,1.4l-1.8,0.1l0.2,4.9l-1.5,0L334.2,316.2L334.2,316.2z"/>
			<path d="M338.1,314.6l1.5,0l0.1,2.4l2.4-0.1l-0.1-2.4l1.5,0l0.2,6.3l-1.5,0l-0.1-2.5l-2.4,0.1l0.1,2.5l-1.5,0L338.1,314.6z"/>
			<path d="M348.5,314.3l1.5,0l2.5,6.2l-1.5,0l-0.5-1.2l-2.2,0.1l-0.4,1.2l-1.5,0L348.5,314.3L348.5,314.3z M350.1,318.1l-0.8-2.1
				l-0.6,2.1L350.1,318.1L350.1,318.1z"/>
			<path d="M352.1,315.9l1.5,0l1.1,3l0.9-3l1.5,0l-1.6,4.7l-1.4,0L352.1,315.9L352.1,315.9z"/>
			<path d="M361.9,318.8c-0.2,0.8-0.9,1.5-2.1,1.5c-1.2,0-2.4-1-2.4-2.3s1-2.5,2.3-2.5c1.3,0,2.3,0.9,2.4,2.3c0,0.1,0,0.2,0,0.3v0.1
				l-3.2,0.1c0.1,0.4,0.5,0.7,1,0.7c0.2,0,0.4-0.1,0.5-0.2c0.1,0,0.1-0.1,0.2-0.2L361.9,318.8L361.9,318.8z M360.7,317.4
				c-0.1-0.4-0.5-0.7-1-0.7s-0.8,0.4-0.9,0.8L360.7,317.4z"/>
			<path d="M362.7,315.5l1,0l0.2,0.5c0.1-0.1,0.2-0.2,0.4-0.3c0.2-0.1,0.6-0.3,1-0.3c1.1,0,1.9,0.7,1.9,1.9l0.1,2.7l-1.4,0l-0.1-2.5
				c0-0.6-0.4-0.9-0.9-0.9s-0.8,0.4-0.8,1l0.1,2.5l-1.4,0L362.7,315.5L362.7,315.5z"/>
			<path d="M368,315.3l1.4,0l0.1,2.5c0,0.6,0.4,0.9,0.9,0.9s0.8-0.4,0.8-1l-0.1-2.5l1.4,0l0.2,4.6l-1,0l-0.2-0.4
				c-0.1,0.1-0.2,0.2-0.4,0.3c-0.2,0.1-0.6,0.3-1,0.3c-1.1,0-1.9-0.7-1.9-1.9L368,315.3L368,315.3z"/>
			<path d="M377.9,318.2c-0.2,0.8-0.9,1.5-2.1,1.5c-1.2,0-2.4-1-2.4-2.3s1-2.5,2.3-2.5c1.3,0,2.3,0.9,2.4,2.3c0,0.1,0,0.2,0,0.3v0.1
				l-3.2,0.1c0.1,0.4,0.5,0.7,1,0.7c0.2,0,0.4-0.1,0.5-0.2c0.1,0,0.1-0.1,0.2-0.2L377.9,318.2L377.9,318.2z M376.6,316.9
				c-0.1-0.4-0.5-0.7-1-0.7s-0.8,0.4-0.9,0.8L376.6,316.9z"/>
		</g>
		<g>
			<path d="M751.7,120.4l-1.1-1.4l1.1-0.8l3,4.1l-1.1,0.8l-1.1-1.4l-3.9,2.9l-0.9-1.2L751.7,120.4L751.7,120.4z"/>
			<path d="M753.5,123.3l0.6,0.8l-0.3,0.5c0.1,0,0.3,0,0.4,0.1c0.2,0.1,0.5,0.2,0.7,0.5c0.1,0.1,0.1,0.2,0.2,0.2l0,0.1l-1.1,0.8
				l0-0.1c0-0.1-0.1-0.2-0.2-0.3c-0.3-0.4-0.8-0.5-1.3-0.1l-1.9,1.4l-0.8-1.1L753.5,123.3L753.5,123.3z"/>
			<path d="M755.5,126l0.8,1.1l-2,1.5c-0.5,0.4-0.6,0.9-0.2,1.3c0.3,0.4,0.8,0.5,1.3,0.1l2-1.5l0.8,1.1l-3.7,2.8l-0.6-0.8l0.2-0.4
				c-0.1,0-0.3-0.1-0.4-0.2c-0.2-0.1-0.5-0.3-0.8-0.6c-0.7-0.9-0.5-1.9,0.5-2.7L755.5,126L755.5,126z"/>
			<path d="M758.7,130.3l0.6,0.8l-0.2,0.4c0.1,0,0.3,0.1,0.4,0.1c0.2,0.1,0.5,0.3,0.8,0.6c0.7,0.9,0.5,1.9-0.5,2.7l-2.2,1.6
				l-0.8-1.1l2-1.5c0.5-0.4,0.6-0.9,0.2-1.3c-0.3-0.4-0.8-0.5-1.3-0.1l-2,1.5l-0.8-1.1L758.7,130.3L758.7,130.3z"/>
			<path d="M763.3,133.6l0.8,1.1l-2.9,2.1l2.2-0.1l0.9,1.2l-2.7,0.1l-0.9,2.8l-0.9-1.2l0.8-2.4l-1.7,1.2l-0.8-1.1L763.3,133.6
				L763.3,133.6z"/>
			<path d="M767.6,139.3l0.9,1.2l-1.9,1.4l1.5,1.9l1.9-1.4l0.9,1.2l-5.1,3.8l-0.9-1.2l2-1.5l-1.5-1.9l-2,1.5l-0.9-1.2L767.6,139.3z"
				/>
			<path d="M770.1,145.5l0.8,1.1l-3.7,2.8l-0.8-1.1L770.1,145.5z M772.1,144.9c0.2,0.3,0.2,0.8-0.2,1.1c-0.3,0.2-0.8,0.2-1.1-0.1
				s-0.2-0.8,0.2-1.1C771.4,144.5,771.9,144.5,772.1,144.9L772.1,144.9z"/>
			<path d="M768.5,151.2c0,0.1-0.1,0.2-0.1,0.3c0,0.2,0,0.4,0.2,0.6c0.3,0.4,0.9,0.5,1.3,0.2l0.2-0.1c-0.1,0-0.2-0.1-0.3-0.1
				c-0.2-0.1-0.4-0.3-0.7-0.6c-0.7-0.9-0.5-2.3,0.5-3s2.3-0.6,3,0.4c0.2,0.3,0.3,0.7,0.4,0.9c0,0.1,0,0.3,0,0.4l0.5-0.1l0.6,0.8
				l-3.4,2.5c-1,0.7-2.2,0.5-3.1-0.6c-0.5-0.7-0.5-1.4-0.4-1.8c0.1-0.3,0.2-0.6,0.4-0.8L768.5,151.2L768.5,151.2z M770.3,150.9
				c0.3,0.4,0.9,0.5,1.3,0.2s0.5-0.9,0.2-1.3s-0.9-0.5-1.3-0.2S769.9,150.5,770.3,150.9z"/>
			<path d="M776.1,150.7l0.8,1.1l-1.7,1.3c0.1,0,0.3,0,0.4,0.1c0.2,0.1,0.5,0.3,0.8,0.6c0.6,0.8,0.5,1.9-0.5,2.6l-2.2,1.6l-0.8-1.1
				l2-1.5c0.5-0.4,0.6-0.9,0.2-1.3c-0.3-0.4-0.8-0.5-1.3-0.1l-2,1.5l-0.8-1.1L776.1,150.7L776.1,150.7z"/>
			<path d="M777.7,155.6l0.8,1.1l-1.7,2.3l2.7-0.9l0.5,0.7l-1.7,2.3l2.7-1l0.8,1.1l-4.6,1.5l-0.7-0.9l1.6-2.2l-2.5,0.9l-0.7-0.9
				L777.7,155.6L777.7,155.6z"/>
			<path d="M780.5,166.3c-0.1,0-0.3-0.1-0.4-0.1c-0.2-0.1-0.5-0.3-0.8-0.6c-0.6-0.8-0.5-1.6,0.1-2c0.7-0.6,1.6-0.4,2.9,1.3
				c0.4-0.3,0.4-0.6,0.2-0.9c-0.2-0.2-0.3-0.2-0.5-0.3c-0.1,0-0.2,0-0.2,0l-0.7-1.1c0.8-0.4,1.7-0.3,2.5,0.7c0.7,0.9,0.5,2-0.4,2.7
				l-2.2,1.7l-0.6-0.8L780.5,166.3L780.5,166.3z M781.6,165.3c-0.7-0.9-1-1-1.3-0.8c-0.2,0.1-0.2,0.4,0,0.7c0.3,0.4,0.8,0.5,1.2,0.2
				L781.6,165.3L781.6,165.3z"/>
			<path d="M781.2,168.9c0.3,0.4,0.7,0.5,1.1,0.4l2.5-4.1l0.9,1.2l-1.7,2.5l2.9-0.9l0.9,1.2l-4.8,1.3c-1.2,0.3-1.9,0.2-2.4-0.5
				c-0.1-0.1-0.1-0.2-0.2-0.2l-0.1-0.1L781.2,168.9L781.2,168.9z"/>
			<path d="M788,173.9c-0.2,0.2-0.3,0.7,0,1.1c0.3,0.4,0.8,0.5,1.1,0.3c0.3-0.2,0.3-0.6,0-1.1l-0.4-0.5l1-0.7l0.4,0.5
				c0.3,0.4,0.7,0.5,1,0.3s0.3-0.6,0-1c-0.3-0.4-0.6-0.4-0.9-0.2l-0.8-1.2c0.8-0.5,2-0.4,2.8,0.7s0.7,2.3-0.1,2.8
				c-0.4,0.3-0.8,0.3-1.1,0.2c-0.2,0-0.3-0.1-0.5-0.1c0,0.2,0,0.4,0,0.6c0,0.4-0.2,0.8-0.7,1.1c-0.8,0.6-2,0.4-2.8-0.8
				c-0.9-1.2-0.7-2.4,0.1-3L788,173.9L788,173.9z"/>
			<path d="M794.1,177.1l-1.5-2.1l1.1-0.8l2.5,3.4l-0.9,0.7l-5.6,1.2l-0.9-1.3L794.1,177.1L794.1,177.1z"/>
			<path d="M795.8,180l-0.8-0.2l0.5-1.2l1.9,0.6l0.7,0.9l-5.1,3.8l-0.9-1.2L795.8,180z"/>
		</g>
		<g>
			<path d="M338.8,252.7l2.3-2.4c0.1-0.1,0.2-0.2,0.3-0.3c0.1-0.2,0.3-0.4,0.3-0.7c0-0.4-0.2-0.6-0.7-0.6c-0.5,0-0.8,0.3-0.8,0.8
				l-1.4-0.1c0-1.2,0.9-2,2.2-2s2.2,0.8,2.2,1.9c0,0.5-0.2,0.9-0.5,1.3c-0.1,0.2-0.3,0.4-0.5,0.5l-1.2,1.3h2.2v1.4h-4.4L338.8,252.7
				L338.8,252.7z"/>
			<path d="M346.1,247.4h1.5l-1.4,2c1.2-0.1,2.3,0.9,2.3,2.2s-1,2.2-2.4,2.2s-2.4-1-2.4-2.2c0-0.4,0.1-0.9,0.3-1.2
				c0.1-0.2,0.2-0.4,0.3-0.5L346.1,247.4L346.1,247.4z M347.1,251.5c0-0.6-0.4-1-0.9-1s-0.9,0.4-0.9,1s0.4,1,0.9,1
				S347.1,252.1,347.1,251.5z"/>
		</g>
		<g>
			<path d="M304.4,254l2.3-2.4c0.1-0.1,0.2-0.2,0.3-0.3c0.1-0.2,0.3-0.4,0.3-0.7c0-0.4-0.2-0.6-0.7-0.6c-0.5,0-0.8,0.3-0.8,0.8
				l-1.4-0.1c0-1.2,0.9-2,2.2-2s2.2,0.8,2.2,1.9c0,0.5-0.2,0.9-0.5,1.3c-0.1,0.2-0.3,0.4-0.5,0.5l-1.2,1.3h2.2v1.4h-4.4L304.4,254
				L304.4,254z"/>
			<path d="M311.9,250.1h-2.6v-1.4h4.2v1.2l-2.4,5.2h-1.6L311.9,250.1z"/>
		</g>
		<g>
			<path d="M271,255l2.3-2.4c0.1-0.1,0.2-0.2,0.3-0.3c0.1-0.2,0.3-0.4,0.3-0.7c0-0.4-0.2-0.6-0.7-0.6c-0.5,0-0.8,0.3-0.8,0.8
				l-1.4-0.1c0-1.2,0.9-2,2.2-2s2.2,0.8,2.2,1.9c0,0.5-0.2,0.9-0.5,1.3c-0.1,0.2-0.3,0.4-0.5,0.5l-1.2,1.3h2.2v1.4H271L271,255
				L271,255z"/>
			<path d="M276.6,253c0.1-0.1,0.3-0.3,0.5-0.4c-0.1-0.1-0.3-0.2-0.4-0.3c-0.2-0.2-0.4-0.5-0.4-0.9c0-0.9,0.8-1.7,2.1-1.7
				s2.1,0.8,2.1,1.7c0,0.4-0.2,0.7-0.4,0.9c-0.1,0.1-0.2,0.2-0.4,0.3c0.2,0.1,0.4,0.2,0.5,0.4c0.2,0.2,0.5,0.6,0.5,1.2
				c0,1-0.9,1.9-2.4,1.9s-2.4-0.9-2.4-1.9C276.1,253.6,276.4,253.2,276.6,253z M278.5,254.9c0.6,0,0.9-0.4,0.9-0.8s-0.3-0.8-0.9-0.8
				s-0.9,0.4-0.9,0.8S277.9,254.9,278.5,254.9z M278.5,252c0.4,0,0.7-0.2,0.7-0.6s-0.3-0.6-0.7-0.6c-0.5,0-0.7,0.3-0.7,0.6
				C277.8,251.8,278.1,252,278.5,252z"/>
		</g>
		<g>
			<path d="M236.6,255.7l2.3-2.4c0.1-0.1,0.2-0.2,0.3-0.3c0.1-0.2,0.3-0.4,0.3-0.7c0-0.4-0.2-0.6-0.7-0.6c-0.5,0-0.8,0.3-0.8,0.8
				l-1.4-0.1c0-1.2,0.9-2,2.2-2s2.2,0.8,2.2,1.9c0,0.5-0.2,0.9-0.5,1.3c-0.1,0.2-0.3,0.4-0.5,0.5l-1.2,1.3h2.2v1.4h-4.4L236.6,255.7
				L236.6,255.7z"/>
			<path d="M244,254.7c-1.2,0.1-2.3-0.9-2.3-2.2s1-2.2,2.4-2.2s2.4,1,2.4,2.2c0,0.4-0.1,0.9-0.3,1.2c-0.1,0.2-0.2,0.4-0.3,0.5
				l-1.7,2.5h-1.5L244,254.7L244,254.7z M245,252.5c0-0.6-0.4-1-0.9-1s-0.9,0.4-0.9,1s0.4,1,0.9,1S245,253.1,245,252.5z"/>
		</g>
		<g>
			<path d="M204,255.7c0.1,0.3,0.3,0.7,0.9,0.7c0.6,0,0.9-0.3,0.9-0.7c0-0.4-0.3-0.6-0.9-0.6h-0.6v-1.2h0.6c0.6,0,0.8-0.2,0.8-0.6
				s-0.3-0.6-0.8-0.6c-0.4,0-0.7,0.2-0.8,0.6l-1.5-0.1c0.1-1,0.9-1.8,2.3-1.8s2.2,0.8,2.2,1.8c0,0.4-0.2,0.8-0.4,1
				c-0.1,0.1-0.3,0.2-0.4,0.3c0.2,0.1,0.4,0.2,0.5,0.3c0.2,0.2,0.5,0.6,0.5,1.2c0,1-0.9,1.8-2.3,1.8s-2.3-0.9-2.4-1.9L204,255.7
				L204,255.7z"/>
			<path d="M210.6,251.2c1.5,0,2.7,1.2,2.7,3.2s-1.2,3.2-2.7,3.2s-2.7-1.2-2.7-3.2S209.1,251.2,210.6,251.2L210.6,251.2z
				 M210.6,252.6c-0.6,0-1.3,0.6-1.3,1.8s0.6,1.8,1.3,1.8s1.3-0.6,1.3-1.8S211.2,252.6,210.6,252.6L210.6,252.6z"/>
		</g>
		<g>
			<path d="M171.1,257.2c0.1,0.4,0.3,0.6,0.9,0.6c0.6,0,0.9-0.3,0.9-0.7c0-0.4-0.3-0.6-0.9-0.6h-0.6v-1.2h0.6c0.6,0,0.8-0.2,0.8-0.6
				s-0.3-0.6-0.8-0.6c-0.4,0-0.7,0.2-0.8,0.6l-1.5-0.1c0.1-1,0.9-1.8,2.3-1.8s2.2,0.8,2.2,1.8c0,0.4-0.2,0.8-0.4,1
				c-0.1,0.1-0.3,0.2-0.4,0.3c0.2,0.1,0.4,0.2,0.5,0.3c0.2,0.2,0.5,0.6,0.5,1.2c0,1-0.9,1.8-2.3,1.8s-2.3-0.9-2.4-1.9L171.1,257.2
				L171.1,257.2z"/>
			<path d="M176,254.5l-0.6,0.4l-0.7-1.1l1.7-1.2h1.2v6.3H176L176,254.5L176,254.5z"/>
		</g>
		<g>
			<path d="M137,257.9c0.1,0.4,0.3,0.6,0.9,0.6c0.6,0,0.9-0.3,0.9-0.7c0-0.4-0.3-0.6-0.9-0.6h-0.6V256h0.6c0.6,0,0.8-0.2,0.8-0.6
				s-0.3-0.6-0.8-0.6c-0.4,0-0.7,0.2-0.8,0.6l-1.5-0.1c0.1-1,0.9-1.8,2.3-1.8s2.2,0.8,2.2,1.8c0,0.4-0.2,0.8-0.4,1
				c-0.1,0.1-0.3,0.2-0.4,0.3c0.2,0.1,0.4,0.2,0.5,0.3c0.2,0.2,0.5,0.6,0.5,1.2c0,1-0.9,1.8-2.3,1.8s-2.3-0.9-2.4-1.9L137,257.9
				L137,257.9z"/>
			<path d="M140.9,258.8l2.3-2.4c0.1-0.1,0.2-0.2,0.3-0.3c0.1-0.2,0.3-0.4,0.3-0.7c0-0.4-0.2-0.6-0.7-0.6c-0.5,0-0.8,0.3-0.8,0.8
				l-1.4-0.1c0-1.2,0.9-2,2.2-2s2.2,0.8,2.2,1.9c0,0.5-0.2,0.9-0.5,1.3c-0.1,0.2-0.3,0.4-0.5,0.5l-1.2,1.3h2.2v1.4h-4.4L140.9,258.8
				L140.9,258.8z"/>
		</g>
		<g>
			<path class="st0" d="M0,318.9c0,0,1.2,0,3.5-0.1"/>
			<path class="st2" d="M10.4,318.6c68.1-1.8,450.6-11.9,582.9-18.9c65.3-7.2,122.5-4,180.3,42.5"/>
			<path class="st0" d="M776.3,344.4c0.9,0.7,1.8,1.5,2.7,2.2"/>
		</g>
		<g>
			<path class="st0" d="M0,336c0,0,1.2,0,3.5-0.1"/>
			<path class="st3" d="M10.6,335.8c68.4-1.8,450.6-11.9,582.8-18.9c77.6-0.1,106.4-0.1,165.9,42.8"/>
			<path class="st0" d="M762.1,361.7c0.9,0.7,1.9,1.4,2.8,2.1"/>
		</g>
		<line class="st0" x1="629.7" y1="0.3" x2="845.5" y2="285.8"/>
	</g>
</g>
<polygon points="99.2,171.6 100,170.7 100,172.5 "/>
<polygon points="111.6,171.6 110.7,172.5 110.7,170.7 "/>
<line class="st4" x1="100" y1="171.6" x2="110.7" y2="171.6"/>
<polygon points="147,164.1 147.9,165 146.1,165 "/>
<polygon points="147,175.3 146.1,174.4 147.9,174.4 "/>
<line class="st4" x1="147" y1="165" x2="147" y2="174.4"/>
<g>
	<path d="M101.4,169.4l1.7-1.8c0.1-0.1,0.2-0.2,0.3-0.3c0.1-0.2,0.3-0.4,0.3-0.6c0-0.4-0.2-0.6-0.7-0.6s-0.7,0.3-0.7,0.7h-0.9
		c0-0.9,0.6-1.5,1.6-1.5c1,0,1.6,0.6,1.6,1.4c0,0.4-0.2,0.7-0.4,1c-0.1,0.2-0.3,0.3-0.4,0.5l-1,1h1.8v0.9h-3.1V169.4z"/>
	<path d="M109,167.7c0,1.5-0.9,2.4-1.9,2.4c-1,0-1.9-0.9-1.9-2.4s0.9-2.4,1.9-2.4C108.1,165.3,109,166.2,109,167.7z M106,167.7
		c0,1,0.5,1.5,1,1.5c0.5,0,1-0.5,1-1.5c0-1-0.5-1.5-1-1.5C106.5,166.1,106,166.7,106,167.7z"/>
	<path d="M109.7,166.7c0.1,0,0.1-0.1,0.2-0.1c0.1-0.1,0.2-0.2,0.2-0.4c-0.3,0-0.5-0.2-0.5-0.5s0.2-0.5,0.5-0.5s0.5,0.2,0.5,0.5
		c0,0.4-0.2,0.7-0.3,0.9c-0.1,0.1-0.2,0.2-0.3,0.3L109.7,166.7z"/>
</g>
<polygon points="102.4,281.6 103.3,280.7 103.3,282.5 "/>
<polygon points="114.9,281.6 114,282.5 114,280.7 "/>
<line class="st4" x1="103.3" y1="281.6" x2="114" y2="281.6"/>
<g>
	<path d="M104.6,279.4l1.7-1.8c0.1-0.1,0.2-0.2,0.3-0.3c0.1-0.2,0.3-0.4,0.3-0.6c0-0.4-0.2-0.6-0.7-0.6s-0.7,0.3-0.7,0.7h-0.9
		c0-0.9,0.6-1.5,1.6-1.5c1,0,1.6,0.6,1.6,1.4c0,0.4-0.2,0.7-0.4,1c-0.1,0.2-0.3,0.3-0.4,0.5l-1,1h1.8v0.9h-3.1V279.4z"/>
	<path d="M112.2,277.7c0,1.5-0.9,2.4-1.9,2.4c-1,0-1.9-0.9-1.9-2.4s0.9-2.4,1.9-2.4C111.3,275.3,112.2,276.2,112.2,277.7z
		 M109.2,277.7c0,1,0.5,1.5,1,1.5c0.5,0,1-0.5,1-1.5c0-1-0.5-1.5-1-1.5C109.7,276.2,109.2,276.7,109.2,277.7z"/>
	<path d="M112.9,276.7c0.1,0,0.1-0.1,0.2-0.1c0.1-0.1,0.2-0.2,0.2-0.4c-0.3,0-0.5-0.2-0.5-0.5s0.2-0.5,0.5-0.5s0.5,0.2,0.5,0.5
		c0,0.4-0.2,0.7-0.3,0.9c-0.1,0.1-0.2,0.2-0.3,0.3L112.9,276.7z"/>
</g>
<polygon points="227.1,167.9 228,167.1 228,168.8 "/>
<polygon points="239.6,167.9 238.7,168.8 238.7,167.1 "/>
<line class="st4" x1="228" y1="167.9" x2="238.7" y2="167.9"/>
<g>
	<path d="M229.3,165.7l1.7-1.8c0.1-0.1,0.2-0.2,0.3-0.3c0.1-0.2,0.3-0.4,0.3-0.6c0-0.4-0.2-0.6-0.7-0.6s-0.7,0.3-0.7,0.7h-0.9
		c0-0.9,0.6-1.5,1.6-1.5c1,0,1.6,0.6,1.6,1.4c0,0.4-0.2,0.7-0.4,1c-0.1,0.2-0.3,0.3-0.4,0.5l-1,1h1.8v0.9h-3.1V165.7z"/>
	<path d="M236.9,164c0,1.5-0.9,2.4-1.9,2.4c-1,0-1.9-0.9-1.9-2.4s0.9-2.4,1.9-2.4C236,161.6,236.9,162.5,236.9,164z M234,164
		c0,1,0.5,1.5,1,1.5c0.5,0,1-0.5,1-1.5c0-1-0.5-1.5-1-1.5C234.5,162.5,234,163,234,164z"/>
	<path d="M237.6,163c0.1,0,0.1-0.1,0.2-0.1c0.1-0.1,0.2-0.2,0.2-0.4c-0.3,0-0.5-0.2-0.5-0.5s0.2-0.5,0.5-0.5s0.5,0.2,0.5,0.5
		c0,0.4-0.2,0.7-0.3,0.9c-0.1,0.1-0.2,0.2-0.3,0.3L237.6,163z"/>
</g>
<polygon points="396.5,204.8 397.4,205.7 395.6,205.7 "/>
<polygon points="396.5,217.7 395.6,216.8 397.4,216.8 "/>
<line class="st4" x1="396.5" y1="205.7" x2="396.5" y2="216.8"/>
<g>
	<path d="M398.8,213l1.7-1.8c0.1-0.1,0.2-0.2,0.3-0.3c0.1-0.2,0.3-0.4,0.3-0.6c0-0.4-0.2-0.6-0.7-0.6s-0.7,0.3-0.7,0.7h-0.9
		c0-0.9,0.6-1.5,1.6-1.5c1,0,1.6,0.6,1.6,1.4c0,0.4-0.2,0.7-0.4,1c-0.1,0.2-0.3,0.3-0.4,0.5l-1,1h1.8v0.9h-3.1V213z"/>
	<path d="M406.5,211.3c0,1.5-0.9,2.4-1.9,2.4c-1,0-1.9-0.9-1.9-2.4s0.9-2.4,1.9-2.4C405.6,208.9,406.5,209.8,406.5,211.3z
		 M403.5,211.3c0,1,0.5,1.5,1,1.5c0.5,0,1-0.5,1-1.5c0-1-0.5-1.5-1-1.5C404,209.7,403.5,210.3,403.5,211.3z"/>
	<path d="M407.2,210.3c0.1,0,0.1-0.1,0.2-0.1c0.1-0.1,0.2-0.2,0.2-0.4c-0.3,0-0.5-0.2-0.5-0.5s0.2-0.5,0.5-0.5s0.5,0.2,0.5,0.5
		c0,0.4-0.2,0.7-0.3,0.9c-0.1,0.1-0.2,0.2-0.3,0.3L407.2,210.3z"/>
</g>
<polygon points="535.8,273.2 536.7,272.3 536.7,274 "/>
<polygon points="548.8,273.2 548,274 548,272.3 "/>
<line class="st4" x1="536.7" y1="273.2" x2="548" y2="273.2"/>
<g>
	<path d="M538,270.9l1.7-1.8c0.1-0.1,0.2-0.2,0.3-0.3c0.1-0.2,0.3-0.4,0.3-0.6c0-0.4-0.2-0.6-0.7-0.6s-0.7,0.3-0.7,0.7H538
		c0-0.9,0.6-1.5,1.6-1.5c1,0,1.6,0.6,1.6,1.4c0,0.4-0.2,0.7-0.4,1c-0.1,0.2-0.3,0.3-0.4,0.5l-1,1h1.8v0.9H538V270.9z"/>
	<path d="M545.6,269.2c0,1.5-0.9,2.4-1.9,2.4c-1,0-1.9-0.9-1.9-2.4s0.9-2.4,1.9-2.4C544.7,266.9,545.6,267.8,545.6,269.2z
		 M542.7,269.2c0,1,0.5,1.5,1,1.5c0.5,0,1-0.5,1-1.5c0-1-0.5-1.5-1-1.5C543.2,267.7,542.7,268.2,542.7,269.2z"/>
	<path d="M546.3,268.2c0.1,0,0.1-0.1,0.2-0.1c0.1-0.1,0.2-0.2,0.2-0.4c-0.3,0-0.5-0.2-0.5-0.5s0.2-0.5,0.5-0.5s0.5,0.2,0.5,0.5
		c0,0.4-0.2,0.7-0.3,0.9c-0.1,0.1-0.2,0.2-0.3,0.3L546.3,268.2z"/>
</g>
<g>
	<path d="M150.3,168.6l-0.6,0.4l-0.4-0.7l1.2-0.9h0.7v4.7h-0.9V168.6z"/>
	<path d="M152.2,169.8c0.1-0.1,0.2-0.2,0.4-0.3c-0.1-0.1-0.2-0.1-0.3-0.2c-0.1-0.2-0.3-0.4-0.3-0.7c0-0.7,0.6-1.3,1.5-1.3
		s1.5,0.6,1.5,1.3c0,0.3-0.1,0.5-0.3,0.7c-0.1,0.1-0.2,0.2-0.3,0.2c0.1,0.1,0.3,0.1,0.4,0.3c0.2,0.2,0.4,0.5,0.4,0.9
		c0,0.7-0.7,1.4-1.7,1.4s-1.7-0.7-1.7-1.4C151.9,170.3,152,170,152.2,169.8z M153.5,171.4c0.5,0,0.8-0.3,0.8-0.7
		c0-0.4-0.3-0.7-0.8-0.7s-0.8,0.3-0.8,0.7C152.8,171.1,153,171.4,153.5,171.4z M153.5,169.3c0.4,0,0.6-0.3,0.6-0.6
		c0-0.3-0.3-0.6-0.6-0.6s-0.6,0.3-0.6,0.6C152.9,169,153.2,169.3,153.5,169.3z"/>
	<path d="M155.8,168.8c0.1,0,0.1-0.1,0.2-0.1c0.1-0.1,0.2-0.2,0.2-0.4c-0.3,0-0.5-0.2-0.5-0.5s0.2-0.5,0.5-0.5s0.5,0.2,0.5,0.5
		c0,0.4-0.2,0.7-0.3,0.9c-0.1,0.1-0.2,0.2-0.3,0.3L155.8,168.8z"/>
</g>
<polygon points="335.2,175.7 334.3,176.6 334.3,174.9 "/>
<polygon points="323.6,175.8 324.5,174.9 324.5,176.6 "/>
<line class="st4" x1="334.3" y1="175.7" x2="324.5" y2="175.7"/>
<g>
	<path d="M326.7,179.1l-0.6,0.4l-0.4-0.7l1.2-0.9h0.7v4.7h-0.9V179.1z"/>
	<path d="M328.7,180.3c0.1-0.1,0.2-0.2,0.4-0.3c-0.1-0.1-0.2-0.1-0.3-0.2c-0.1-0.2-0.3-0.4-0.3-0.7c0-0.7,0.6-1.3,1.5-1.3
		s1.5,0.6,1.5,1.3c0,0.3-0.1,0.5-0.3,0.7c-0.1,0.1-0.2,0.2-0.3,0.2c0.1,0.1,0.3,0.1,0.4,0.3c0.2,0.2,0.4,0.5,0.4,0.9
		c0,0.7-0.7,1.4-1.7,1.4s-1.7-0.7-1.7-1.4C328.3,180.8,328.5,180.5,328.7,180.3z M330,181.9c0.5,0,0.8-0.3,0.8-0.7
		c0-0.4-0.3-0.7-0.8-0.7s-0.8,0.3-0.8,0.7C329.2,181.6,329.5,181.9,330,181.9z M330,179.8c0.4,0,0.6-0.3,0.6-0.6
		c0-0.3-0.3-0.6-0.6-0.6s-0.6,0.3-0.6,0.6C329.3,179.5,329.6,179.8,330,179.8z"/>
	<path d="M332.3,179.3c0.1,0,0.1-0.1,0.2-0.1c0.1-0.1,0.2-0.2,0.2-0.4c-0.3,0-0.5-0.2-0.5-0.5s0.2-0.5,0.5-0.5s0.5,0.2,0.5,0.5
		c0,0.4-0.2,0.7-0.3,0.9c-0.1,0.1-0.2,0.2-0.3,0.3L332.3,179.3z"/>
</g>
<polygon points="366.2,247.6 365.3,248.4 365.3,246.7 "/>
<polygon points="354.8,247.6 355.7,246.7 355.7,248.4 "/>
<line class="st4" x1="365.3" y1="247.6" x2="355.7" y2="247.6"/>
<g>
	<path d="M357.7,250.9l-0.6,0.4l-0.4-0.7l1.2-0.9h0.7v4.7h-0.9V250.9z"/>
	<path d="M359.7,252.1c0.1-0.1,0.2-0.2,0.4-0.3c-0.1-0.1-0.2-0.1-0.3-0.2c-0.1-0.2-0.3-0.4-0.3-0.7c0-0.7,0.6-1.3,1.5-1.3
		s1.5,0.6,1.5,1.3c0,0.3-0.1,0.5-0.3,0.7c-0.1,0.1-0.2,0.2-0.3,0.2c0.1,0.1,0.3,0.1,0.4,0.3c0.2,0.2,0.4,0.5,0.4,0.9
		c0,0.7-0.7,1.4-1.7,1.4s-1.7-0.7-1.7-1.4C359.3,252.6,359.5,252.3,359.7,252.1z M361,253.7c0.5,0,0.8-0.3,0.8-0.7
		c0-0.4-0.3-0.7-0.8-0.7s-0.8,0.3-0.8,0.7C360.2,253.4,360.5,253.7,361,253.7z M361,251.6c0.4,0,0.6-0.3,0.6-0.6s-0.3-0.6-0.6-0.6
		s-0.6,0.3-0.6,0.6S360.6,251.6,361,251.6z"/>
	<path d="M363.3,251.1c0.1,0,0.1-0.1,0.2-0.1c0.1-0.1,0.2-0.2,0.2-0.4c-0.3,0-0.5-0.2-0.5-0.5c0-0.3,0.2-0.5,0.5-0.5
		s0.5,0.2,0.5,0.5c0,0.4-0.2,0.7-0.3,0.9c-0.1,0.1-0.2,0.2-0.3,0.3L363.3,251.1z"/>
</g>
</svg>
