<?xml version="1.0" encoding="UTF-8"?>
<svg id="Layer_2" xmlns="http://www.w3.org/2000/svg" version="1.1" viewBox="0 0 845.9 364.2">
  <!-- Generator: Adobe Illustrator 29.0.0, SVG Export Plug-In . SVG Version: 2.1.0 Build 186)  -->
  <defs>
    <style>
      .st0 {
        stroke-miterlimit: 10;
        stroke-width: 1px;
      }

      .st0, .st1, .st2, .st3, .st4, .st5, .st6, .st7 {
        stroke: #000;
      }

      .st0, .st1, .st2, .st3, .st4, .st6, .st7 {
        fill: none;
      }

      .st1 {
        stroke-width: .5px;
      }

      .st1, .st2, .st3, .st5, .st6 {
        stroke-miterlimit: 10;
      }

      .st3 {
        stroke-dasharray: 0 0 7.1 7.1;
      }

      .st8 {
        fill: #e2e2e2;
      }

      .st4 {
        stroke-miterlimit: 10;
        stroke-width: 1px;
      }

      .st5 {
        fill: #a0e259;
      }

      .st6 {
        stroke-dasharray: 0 0 6.9 6.9;
      }

      .st7 {
        stroke-miterlimit: 10;
        stroke-width: 1px;
      }
    </style>
  </defs>
  <rect id="SPACE5" class="st2" x="48.3" y="110.2" width="36.9" height="21.8"/>
  <rect id="SPACE6" class="st2" x="127.2" y="108.2" width="36.9" height="21.8"/>
  <rect id="SPACE7" class="st2" x="128.5" y="142" width="36.9" height="21.8"/>
  <rect id="SPACE8" class="st2" x="129.2" y="175.7" width="36.9" height="21.8"/>
  <rect id="SPACE10" class="st2" x="176.8" y="140.6" width="36.9" height="21.8"/>
  <rect id="SPACE9" class="st2" x="177.9" y="174.2" width="36.9" height="21.8"/>
  <rect id="SPACE11" class="st2" x="251.4" y="138.4" width="36.9" height="21.8"/>
  <rect id="SPACE4" class="st2" x="49.2" y="143.9" width="36.9" height="21.8"/>
  <rect id="SPACE3" class="st2" x="50.8" y="177.5" width="36.9" height="21.8"/>
  <rect id="SPACE2" class="st2" x="52.3" y="220.6" width="36.9" height="21.8"/>
  <rect id="SPACE1" class="st2" x="53.9" y="254.9" width="36.9" height="21.8"/>
  <line class="st2" x1="82.8" y1="110.2" x2="82.8" y2="132"/>
  <line class="st2" x1="83.7" y1="143.9" x2="83.7" y2="165.6"/>
  <line class="st2" x1="85.2" y1="177.5" x2="85.2" y2="199.3"/>
  <line class="st2" x1="86.1" y1="220.6" x2="86.1" y2="242.4"/>
  <line class="st2" x1="87.7" y1="254.9" x2="87.7" y2="276.6"/>
  <line class="st2" x1="129.9" y1="108.2" x2="129.9" y2="130"/>
  <line class="st2" x1="131" y1="142" x2="131" y2="163.7"/>
  <line class="st2" x1="131.7" y1="175.7" x2="131.7" y2="197.5"/>
  <line class="st2" x1="211.4" y1="140.6" x2="211.4" y2="162.4"/>
  <line class="st2" x1="212.2" y1="174.2" x2="212.2" y2="196"/>
  <line class="st2" x1="253.9" y1="138.4" x2="253.9" y2="160.2"/>
  <rect id="SPACE12" class="st2" x="252.5" y="172.3" width="36.9" height="21.8"/>
  <line class="st2" x1="255" y1="172.3" x2="255" y2="194"/>
  <rect id="SPACE13" class="st2" x="301.4" y="159.1" width="21.8" height="36.9"/>
  <line class="st2" x1="301.4" y1="193.4" x2="323.1" y2="193.4"/>
  <rect id="SPACE14" class="st2" x="335.6" y="157.3" width="21.8" height="36.9"/>
  <line class="st2" x1="335.6" y1="191.7" x2="357.4" y2="191.7"/>
  <rect id="SPACE15" class="st2" x="369.1" y="157.3" width="21.8" height="36.9"/>
  <line class="st2" x1="369.1" y1="191.7" x2="390.8" y2="191.7"/>
  <rect id="SPACE16" class="st2" x="403.1" y="154.8" width="21.8" height="36.9"/>
  <line class="st2" x1="403.1" y1="189.1" x2="424.9" y2="189.1"/>
  <rect id="SPACE17" class="st2" x="437.1" y="154.8" width="21.8" height="36.9"/>
  <line class="st2" x1="437.1" y1="189.1" x2="458.8" y2="189.1"/>
  <rect id="SPACE18" class="st0" x="466.1" y="162.3" width="36.9" height="21.8" transform="translate(232.6 621.9) rotate(-80.4)"/>
  <line class="st2" x1="471.1" y1="187.1" x2="492.6" y2="190.8"/>
  <rect id="SPACE19" class="st4" x="532.3" y="159.9" width="36.9" height="21.8" transform="translate(138.6 574.1) rotate(-61.6)"/>
  <line class="st2" x1="533.5" y1="179.6" x2="552.7" y2="189.9"/>
  <rect id="SPACE20" class="st7" x="561.8" y="193.4" width="36.9" height="21.8" transform="translate(-28.1 295.4) rotate(-27.9)"/>
  <line class="st2" x1="561.1" y1="202.2" x2="571.3" y2="221.4"/>
  <rect id="SPACE21" class="st2" x="578.5" y="235.7" width="36.9" height="21.8"/>
  <line class="st2" x1="581" y1="235.7" x2="581" y2="257.5"/>
  <rect id="SPACE22" class="st2" x="468.2" y="243.1" width="36.9" height="21.8"/>
  <line class="st2" x1="502.6" y1="264.8" x2="502.6" y2="243.1"/>
  <rect id="SPACE23" class="st2" x="434.4" y="228.1" width="21.8" height="36.9"/>
  <line class="st2" x1="456.2" y1="230.6" x2="434.4" y2="230.6"/>
  <rect id="SPACE24" class="st2" x="400.3" y="228.7" width="21.8" height="36.9"/>
  <line class="st2" x1="422.1" y1="231.2" x2="400.3" y2="231.2"/>
  <rect id="SPACE25" class="st2" x="366.7" y="229.7" width="21.8" height="36.9"/>
  <line class="st2" x1="388.5" y1="232.3" x2="366.7" y2="232.3"/>
  <rect id="SPACE26" class="st2" x="332.6" y="231.2" width="21.8" height="36.9"/>
  <line class="st2" x1="354.4" y1="233.7" x2="332.6" y2="233.7"/>
  <rect id="SPACE27" class="st2" x="298.4" y="232.3" width="21.8" height="36.9"/>
  <line class="st2" x1="320.2" y1="234.8" x2="298.4" y2="234.8"/>
  <rect id="SPACE28" class="st2" x="264.8" y="233.8" width="21.8" height="36.9"/>
  <line class="st2" x1="286.5" y1="236.3" x2="264.8" y2="236.3"/>
  <rect id="SPACE29" class="st2" x="230.7" y="234.8" width="21.8" height="36.9"/>
  <line class="st2" x1="252.5" y1="237.3" x2="230.7" y2="237.3"/>
  <rect id="SPACE30" class="st2" x="197.1" y="234.8" width="21.8" height="36.9"/>
  <line class="st2" x1="218.8" y1="237.3" x2="197.1" y2="237.3"/>
  <rect id="SPACE31" class="st2" x="162.7" y="237.3" width="21.8" height="36.9"/>
  <line class="st2" x1="184.5" y1="239.8" x2="162.7" y2="239.8"/>
  <rect id="SPACE32" class="st2" x="129.2" y="237.3" width="21.8" height="36.9"/>
  <line class="st2" x1="151" y1="239.8" x2="129.2" y2="239.8"/>
  <polygon class="st2" points="16.2 41.5 12 302.8 770 276.6 601.1 55.1 561.1 82.3 533.5 114.9 505.1 134.5 16.2 41.5"/>
  <path class="st5" d="M89.2,281.6v2c0,1.2-1,2.3-2.3,2.3h-45.9c-3.4,0-6.1-2.8-6-6.1l2.4-206c0-3.2,2.9-5.5,6-4.9l394.2,74.1c2,.4,3.5,2.1,3.5,4.2h0c0,2.3-1.9,4.2-4.2,4.3l-105.6,2.2c-3.5.1-7.1-.8-10.2-2.4l-73.4-39.1c-2.4-1.3-5.1-2-7.9-2.1l-17.9-.7c-3,0-6,1.1-8,3.3l-11,11.7c-1.9,2-4.4,3.1-7.1,3.1h-3c-2.7,0-5.3-1.1-7.1-3.1l-15.8-16.8c-2.4-2.6-5.4-4.4-8.8-5.4l-53.7-16.3c-3.7-1.1-7.7-.9-11.3.6l-46.5,19.8c-2.9,1.2-4.8,4.1-4.7,7.3l4.2,160c0,3.3,2.8,5.9,6,5.9h31.9c1.2-.2,2.2.8,2.2,2.1h0Z"/>
  <path class="st5" d="M123,282.3h0c0-1.2.9-2.1,2.1-2.2l402.8-13.4c1.8-.1,3.4,1.4,3.4,3.2v2.4c0,1.8-1.4,3.2-3.2,3.3l-402.8,8.8c-1.3.1-2.3-.9-2.3-2.1h0Z"/>
  <path class="st5" d="M552.7,268.3v2.8c0,1.7,1.4,3,3.1,3l143.1-6.1c2.5-.1,4.8-1.3,6.4-3.3h0c2-2.6,2-6.1,0-8.7l-108.8-144.5c-2.7-3.6-7.7-4.3-11.3-1.7l-26.6,19.1c-3.2,2.3-3.8,6.7-1.3,9.8l56.7,70.3c2.2,2.8,3.5,6.1,3.7,9.7l1.9,35.7c0,2.6-1.8,4.9-4.4,5.1l-59.8,5.9c-1.6.1-2.7,1.4-2.7,2.9h0Z"/>
  <path d="M70.1,263.3l-.7.5-.7-1.1,1.7-1.2h1.2v6.3h-1.5v-4.5h0Z"/>
  <path d="M67.7,233.8l2.3-2.4c0-.1.2-.2.3-.3.2-.2.3-.4.3-.7s-.2-.6-.7-.6-.8.3-.8.8h-1.4c0-1.3.8-2.1,2.2-2.1s2.2.8,2.2,1.9-.2.9-.5,1.3c-.2.2-.3.4-.5.5l-1.2,1.3h2.2v1.4h-4.4v-1.1h0Z"/>
  <path d="M67.2,189.6c0,.4.3.6.8.6s.8-.3.8-.7-.3-.6-.9-.6h-.6v-1.2h.6c.6,0,.8-.2.8-.6s-.3-.6-.8-.6-.7.2-.8.6h-1.5c0-1.1.9-1.9,2.3-1.9s2.2.8,2.2,1.8-.2.8-.4,1c0,.1-.3.2-.4.3.2.1.3.2.5.3.2.2.5.6.5,1.2,0,1-.8,1.8-2.3,1.8s-2.3-.9-2.4-1.9h1.6Z"/>
  <path d="M64.8,155.7l2.5-3.9h1.7v3.8h.7v1.4h-.7v1.1h-1.5v-1.1h-2.8v-1.3h.1ZM67.5,155.6v-2l-1.3,2h1.3Z"/>
  <path d="M65.2,121.9c0,0,0,.2.2.3,0,.2.3.3.7.3s.9-.4.9-.9-.4-.9-.9-.9-.5,0-.7.2c0,0,0,.2-.2.2h-1.3l.4-3.8h3.7v1.4h-2.4v.8c0,0,0,0,0,0,.2,0,.4,0,.6,0,1.2,0,2.2,1,2.2,2.2s-1,2.2-2.4,2.2-2.2-.8-2.3-1.8h1.4Z"/>
  <path d="M146.8,115.5h1.5l-1.4,2c1.2,0,2.3.9,2.3,2.2s-1,2.2-2.4,2.2-2.4-1-2.4-2.2.1-.9.3-1.2c.1-.2.2-.3.3-.5.2,0,1.8-2.5,1.8-2.5ZM147.8,119.7c0-.6-.4-1-.9-1s-.9.4-.9,1,.4,1,.9,1,.9-.5.9-1Z"/>
  <path d="M148.2,150.8h-2.6v-1.4h4.2v1.2l-2.4,5.2h-1.6l2.4-5Z"/>
  <path d="M147.3,186.4c.1-.1.3-.3.5-.4-.1-.1-.3-.2-.4-.3-.2-.2-.4-.5-.4-.9,0-.9.8-1.7,2.1-1.7s2.1.8,2.1,1.7-.2.7-.4.9-.2.2-.4.3c.2.1.4.2.5.4.2.2.5.6.5,1.2,0,1-.9,1.9-2.4,1.9s-2.4-.9-2.4-1.9c.2-.6.4-1,.7-1.2ZM149.1,188.3c.6,0,.9-.4.9-.8s-.3-.8-.9-.8-.9.4-.9.8.4.8.9.8ZM149.1,185.5c.4,0,.7-.2.7-.6s-.3-.6-.7-.6-.7.3-.7.6c0,.3.4.6.7.6Z"/>
  <path d="M195.4,186.4c-1.2.1-2.3-.9-2.3-2.2s1-2.2,2.4-2.2,2.4,1,2.4,2.2-.1.9-.3,1.2c-.1.2-.2.4-.3.5l-1.7,2.5h-1.5l1.3-2ZM196.4,184.2c0-.6-.4-1-.9-1s-.9.4-.9,1,.4,1,.9,1,.9-.4.9-1Z"/>
  <g>
    <path d="M191.6,149.9l-.6.4-.7-1.1,1.7-1.2h1.2v6.3h-1.5v-4.4h0Z"/>
    <path d="M196.7,148.1c1.5,0,2.7,1.2,2.7,3.2s-1.2,3.2-2.7,3.2-2.7-1.2-2.7-3.2,1.2-3.2,2.7-3.2ZM196.7,149.5c-.6,0-1.3.6-1.3,1.8s.6,1.8,1.3,1.8,1.3-.6,1.3-1.8-.6-1.8-1.3-1.8Z"/>
  </g>
  <g>
    <path d="M268.2,147.5l-.6.4-.7-1.1,1.7-1.2h1.2v6.3h-1.5v-4.4h-.1Z"/>
    <path d="M271.7,147.5l-.6.4-.7-1.1,1.7-1.2h1.2v6.3h-1.5v-4.4h-.1Z"/>
  </g>
  <g>
    <path d="M269.9,181.6l-.6.4-.7-1.1,1.7-1.2h1.2v6.3h-1.5v-4.4h-.1Z"/>
    <path d="M272.3,185.1l2.3-2.4c.1-.1.2-.2.3-.3.1-.2.3-.4.3-.7s-.2-.6-.7-.6-.8.3-.8.8h-1.4c0-1.3.9-2.1,2.2-2.1s2.2.8,2.2,1.9-.2.9-.5,1.3c-.1.2-.3.4-.5.5l-1.2,1.3h2.2v1.4h-4.4v-1.1h0Z"/>
  </g>
  <g>
    <path d="M309.1,173.7l-.6.4-.7-1.1,1.7-1.2h1.2v6.3h-1.5v-4.4h-.1Z"/>
    <path d="M312.9,176.4c0,.4.3.6.9.6s.9-.3.9-.7-.3-.6-.9-.6h-.6v-1.2h.6c.6,0,.8-.2.8-.6s-.3-.6-.8-.6-.7.2-.8.6h-1.5c0-1.1.9-1.9,2.3-1.9s2.2.8,2.2,1.8-.2.8-.4,1c-.1.1-.3.2-.4.3.2.1.4.2.5.3.2.2.5.6.5,1.2,0,1-.9,1.8-2.3,1.8s-2.3-.9-2.4-1.9h1.4Z"/>
  </g>
  <g>
    <path d="M343.3,173l-.6.4-.7-1.1,1.7-1.2h1.2v6.3h-1.5v-4.4h-.1Z"/>
    <path d="M345.5,175.1l2.5-3.9h1.7v3.8h.6v1.4h-.6v1.1h-1.5v-1.1h-2.8v-1.3h0ZM348.3,175v-2l-1.3,2h1.3Z"/>
  </g>
  <g>
    <path d="M377.2,172.1l-.6.4-.7-1.1,1.7-1.2h1.2v6.3h-1.5v-4.4h-.1Z"/>
    <path d="M381.1,174.8c0,.1.1.2.2.3s.3.3.7.3.9-.4.9-.9-.4-.9-.9-.9-.5.1-.7.2c-.1.1-.1.2-.2.2h-1.3l.4-3.8h3.7v1.4h-2.5v.9q0-.1.1-.1c.1-.1.4-.1.6-.1,1.2,0,2.2,1,2.2,2.2s-1,2.2-2.4,2.2-2.1-.9-2.3-1.8h1.5Z"/>
  </g>
  <g>
    <path d="M411.3,170.9l-.6.4-.7-1.1,1.7-1.2h1.2v6.3h-1.5v-4.4h-.1Z"/>
    <path d="M415.9,169h1.5l-1.4,2c1.2-.1,2.3.9,2.3,2.2s-1,2.2-2.4,2.2-2.4-1-2.4-2.2.1-.9.3-1.2c.1-.2.2-.4.3-.5l1.8-2.5h0ZM416.9,173.2c0-.6-.4-1-.9-1s-.9.4-.9,1,.4,1,.9,1,.9-.4.9-1Z"/>
  </g>
  <g>
    <path d="M445,169.4l-.6.4-.7-1.1,1.7-1.2h1.2v6.3h-1.6v-4.4h0Z"/>
    <path d="M450,169.1h-2.6v-1.4h4.2v1.2l-2.4,5.2h-1.6l2.4-5Z"/>
  </g>
  <g>
    <path d="M482.3,170.5l-.6.4-.7-1.1,1.7-1.2h1.2v6.3h-1.5v-4.4h-.1Z"/>
    <path d="M485.2,172c.1-.1.3-.3.5-.4-.1-.1-.3-.2-.4-.3-.2-.2-.4-.5-.4-.9,0-.9.8-1.7,2.1-1.7s2.1.8,2.1,1.7-.2.7-.4.9c-.1.1-.2.2-.4.3.2.1.4.2.5.4.2.2.5.6.5,1.2,0,1-.9,1.9-2.4,1.9s-2.4-.9-2.4-1.9c.2-.6.4-1,.7-1.2ZM487,173.9c.6,0,.9-.4.9-.8s-.3-.8-.9-.8-.9.4-.9.8.4.8.9.8ZM487,171.1c.4,0,.7-.2.7-.6s-.3-.6-.7-.6-.7.3-.7.6.3.6.7.6Z"/>
  </g>
  <g>
    <path d="M548.7,168l-.7.4-.7-1.1,1.7-1.2h1.2v6.3h-1.5v-4.4h0Z"/>
    <path d="M553.4,170.6c-1.2.1-2.3-.9-2.3-2.2s1-2.2,2.4-2.2,2.4,1,2.4,2.2-.2.9-.3,1.2c0,.2-.2.4-.3.5l-1.7,2.5h-1.6l1.4-2ZM554.3,168.4c0-.6-.4-1-.9-1s-.9.4-.9,1,.4,1,.9,1,.9-.4.9-1Z"/>
  </g>
  <g>
    <path d="M576.3,205.6l2.3-2.4c0-.1.2-.2.3-.3.2-.2.3-.4.3-.7s-.2-.6-.7-.6-.8.3-.8.8h-1.4c0-1.3.8-2.1,2.2-2.1s2.2.8,2.2,1.9-.2.9-.5,1.3c-.2.2-.3.4-.5.5l-1.2,1.3h2.2v1.4h-4.4v-1.1h0Z"/>
    <path d="M584.2,200.2c1.5,0,2.7,1.2,2.7,3.2s-1.2,3.2-2.7,3.2-2.7-1.2-2.7-3.2,1.2-3.2,2.7-3.2ZM584.2,201.7c-.7,0-1.3.6-1.3,1.8s.6,1.8,1.3,1.8,1.3-.6,1.3-1.8-.7-1.8-1.3-1.8Z"/>
  </g>
  <g>
    <path d="M592.4,247.9l2.3-2.4c0-.1.2-.2.3-.3.2-.2.3-.4.3-.7s-.2-.6-.7-.6-.8.3-.8.8h-1.4c0-1.3.8-2.1,2.2-2.1s2.2.8,2.2,1.9-.2.9-.5,1.3c-.2.2-.3.4-.5.5l-1.2,1.3h2.2v1.4h-4.4v-1.1h0Z"/>
    <path d="M598.5,244.4l-.7.4-.7-1.1,1.7-1.2h1.2v6.3h-1.5v-4.4h0Z"/>
  </g>
  <g>
    <path d="M481.6,255l2.3-2.4c.1-.1.2-.2.3-.3.1-.2.3-.4.3-.7s-.2-.6-.7-.6-.8.3-.8.8h-1.4c0-1.3.9-2.1,2.2-2.1s2.2.8,2.2,1.9-.2.9-.5,1.3c-.1.2-.3.4-.5.5l-1.2,1.3h2.2v1.4h-4.4v-1.1h0Z"/>
    <path d="M486.8,255l2.3-2.4c.1-.1.2-.2.3-.3.1-.2.3-.4.3-.7s-.2-.6-.7-.6-.8.3-.8.8h-1.4c0-1.3.9-2.1,2.2-2.1s2.2.8,2.2,1.9-.2.9-.5,1.3c-.1.2-.3.4-.5.5l-1.2,1.3h2.2v1.4h-4.4v-1.1h0Z"/>
  </g>
  <g>
    <path d="M440.3,250.3l2.3-2.4c.1-.1.2-.2.3-.3.1-.2.3-.4.3-.7s-.2-.6-.7-.6-.8.3-.8.8h-1.4c0-1.3.9-2.1,2.2-2.1s2.2.8,2.2,1.9-.2.9-.5,1.3c-.1.2-.3.4-.5.5l-1.2,1.3h2.2v1.4h-4.4v-1.1h0Z"/>
    <path d="M446.7,249.4c0,.4.3.6.9.6s.9-.3.9-.7-.3-.6-.9-.6h-.6v-1.2h.6c.6,0,.8-.2.8-.6s-.3-.6-.8-.6-.7.2-.8.6h-1.5c0-1.1.9-1.9,2.3-1.9s2.2.8,2.2,1.8-.2.8-.4,1c-.1.1-.3.2-.4.3.2.1.4.2.5.3.2.2.5.6.5,1.2,0,1-.9,1.8-2.3,1.8s-2.3-.9-2.4-1.9h1.4Z"/>
  </g>
  <g>
    <path d="M406.5,251l2.3-2.4c.1-.1.2-.2.3-.3.1-.2.3-.4.3-.7s-.2-.6-.7-.6-.8.3-.8.8h-1.4c0-1.3.9-2.1,2.2-2.1s2.2.8,2.2,1.9-.2.9-.5,1.3c-.1.2-.3.4-.5.5l-1.2,1.3h2.2v1.4h-4.4v-1.1h0Z"/>
    <path d="M411.3,249.6l2.5-3.9h1.7v3.8h.6v1.4h-.6v1.1h-1.5v-1.1h-2.8v-1.3h0ZM414,249.5v-2l-1.3,2h1.3Z"/>
  </g>
  <g>
    <path d="M372.5,251.9l2.3-2.4c.1-.1.2-.2.3-.3.1-.2.3-.4.3-.7s-.2-.6-.7-.6-.8.3-.8.8h-1.4c0-1.3.9-2.1,2.2-2.1s2.2.8,2.2,1.9-.2.9-.5,1.3c-.1.2-.3.4-.5.5l-1.2,1.3h2.2v1.4h-4.4v-1.1h0Z"/>
    <path d="M379.1,251c0,.1.1.2.2.3s.3.3.7.3.9-.4.9-.9-.4-.9-.9-.9-.5.1-.7.2c-.1.1-.1.2-.2.2h-1.3l.4-3.8h3.7v1.4h-2.5v.9q0-.1.1-.1c.1-.1.4-.1.6-.1,1.2,0,2.2,1,2.2,2.2s-1,2.2-2.4,2.2-2.1-.9-2.3-1.8h1.5Z"/>
  </g>
  <g>
    <path d="M322.7,319.7c0,.1.1.2.2.3.1.1.4.3.7.3.5,0,.9-.4.9-.9s-.4-.9-.9-.9-.5.1-.7.3c-.1.1-.1.2-.2.3h-1.3l.3-3.8h3.7c0-.1,0,1.3,0,1.3h-2.5c0,.1-.1,1-.1,1,.1,0,.1-.1.2-.1.1-.1.4-.1.6-.1,1.2,0,2.2.9,2.2,2.1s-.9,2.2-2.3,2.3c-1.3,0-2.2-.8-2.4-1.7l1.6-.4h0Z"/>
    <path d="M329.1,314.9c1.5,0,2.8,1.1,2.8,3.1.1,2-1.1,3.3-2.6,3.3s-2.8-1.1-2.8-3.1,1.1-3.3,2.6-3.3ZM329.2,316.3c-.6,0-1.2.7-1.2,1.9s.7,1.8,1.3,1.8,1.2-.6,1.2-1.9-.7-1.8-1.3-1.8h0Z"/>
    <path d="M334.2,316.2h-1.8c0,.1,0-1.3,0-1.3l5.1-.2v1.4h-1.8c0,.1.2,5,.2,5h-1.5l-.2-4.9h0Z"/>
    <path d="M338.1,314.6h1.5v2.4c.1,0,2.5-.1,2.5-.1v-2.4c-.1,0,1.4,0,1.4,0l.2,6.3h-1.5v-2.5c-.1,0-2.5.1-2.5.1v2.5c.1,0-1.4,0-1.4,0l-.2-6.3Z"/>
    <path d="M348.5,314.3h1.5l2.5,6.2h-1.5l-.5-1.2h-2.2c0,.1-.4,1.3-.4,1.3h-1.5l2.1-6.3h0ZM350.1,318.1l-.8-2.1-.6,2.1h1.4Z"/>
    <path d="M352.1,315.9h1.5l1.1,3,.9-3h1.5l-1.6,4.7h-1.4l-2-4.7h0Z"/>
    <path d="M361.9,318.8c-.2.8-.9,1.5-2.1,1.5s-2.4-1-2.4-2.3,1-2.5,2.3-2.5,2.3.9,2.4,2.3v.3h0c0,.1-3.2.2-3.2.2.1.4.5.7,1,.7s.4-.1.5-.2c.1,0,.1-.1.2-.2l1.3.2h0ZM360.7,317.4c-.1-.4-.5-.7-1-.7s-.8.4-.9.8h1.9Z"/>
    <path d="M362.7,315.5h1l.2.5c.1-.1.2-.2.4-.3.2-.1.6-.3,1-.3,1.1,0,1.9.7,1.9,1.9v2.7c.1,0-1.3,0-1.3,0v-2.5c-.1-.6-.5-.9-1-.9s-.8.4-.8,1v2.5c.1,0-1.3,0-1.3,0v-4.6h-.1Z"/>
    <path d="M368,315.3h1.4v2.5c.1.6.5.9,1,.9s.8-.4.8-1v-2.5c-.1,0,1.3,0,1.3,0l.2,4.6h-1l-.2-.4c-.1.1-.2.2-.4.3-.2.1-.6.3-1,.3-1.1,0-1.9-.7-1.9-1.9l-.2-2.8h0Z"/>
    <path d="M377.9,318.2c-.2.8-.9,1.5-2.1,1.5s-2.4-1-2.4-2.3,1-2.5,2.3-2.5,2.3.9,2.4,2.3v.3h0c0,.1-3.2.2-3.2.2.1.4.5.7,1,.7s.4-.1.5-.2c.1,0,.1-.1.2-.2l1.3.2h0ZM376.6,316.9c-.1-.4-.5-.7-1-.7s-.8.4-.9.8h1.9Z"/>
  </g>
  <g>
    <path d="M751.7,120.4l-1.1-1.4,1.1-.8,3,4.1-1.1.8-1.1-1.4-3.9,2.9-.9-1.2,4-3h0Z"/>
    <path d="M753.5,123.3l.6.8-.3.5c0,0,.3,0,.4,0,.2,0,.5.2.7.5,0,0,0,.2.2.2h0c0,0-1.1.9-1.1.9h0c0-.2,0-.3-.2-.4-.3-.4-.8-.5-1.3,0l-1.9,1.4-.8-1.1,3.7-2.8h0Z"/>
    <path d="M755.5,126l.8,1.1-2,1.5c-.5.4-.6.9-.2,1.3.3.4.8.5,1.3.1l2-1.5.8,1.1-3.7,2.8-.6-.8.2-.4c0,0-.3-.1-.4-.2-.2-.1-.5-.3-.8-.6-.7-.9-.5-1.9.5-2.7l2.1-1.7h0Z"/>
    <path d="M758.7,130.3l.6.8-.2.4c0,0,.3.1.4.1.2.1.5.3.8.6.7.9.5,1.9-.5,2.7l-2.2,1.6-.8-1.1,2-1.5c.5-.4.6-.9.2-1.3-.3-.4-.8-.5-1.3-.1l-2,1.5-.8-1.1,3.8-2.6h0Z"/>
    <path d="M763.3,133.6l.8,1.1-2.9,2.1h2.2c0-.1.9,1.1.9,1.1h-2.7c0,.1-.9,2.9-.9,2.9l-.9-1.2.8-2.4-1.7,1.2-.8-1.1,5.2-3.7h0Z"/>
    <path d="M767.6,139.3l.9,1.2-1.9,1.4,1.5,1.9,1.9-1.4.9,1.2-5.1,3.8-.9-1.2,2-1.5-1.5-1.9-2,1.5-.9-1.2,5.1-3.8Z"/>
    <path d="M770.1,145.5l.8,1.1-3.7,2.8-.8-1.1,3.7-2.8ZM772.1,144.9c.2.3.2.8-.2,1.1-.3.2-.8.2-1.1-.1s-.2-.8.2-1.1c.4-.3.9-.3,1.1.1h0Z"/>
    <path d="M768.5,151.2c0,.1,0,.2,0,.3,0,.2,0,.4.2.6.3.4.9.5,1.3.2h.2c0-.1-.2-.2-.3-.2-.2-.1-.4-.3-.7-.6-.7-.9-.5-2.3.5-3s2.3-.6,3,.4c.2.3.3.7.4.9v.4h.5c0-.1.6.7.6.7l-3.4,2.5c-1,.7-2.2.5-3.1-.6-.5-.7-.5-1.4-.4-1.8,0-.3.2-.6.4-.8l.9,1h0ZM770.3,150.9c.3.4.9.5,1.3.2s.5-.9.2-1.3-.9-.5-1.3-.2-.6.9-.2,1.3Z"/>
    <path d="M776.1,150.7l.8,1.1-1.7,1.3c0,0,.3,0,.4.1.2.1.5.3.8.6.6.8.5,1.9-.5,2.6l-2.2,1.6-.8-1.1,2-1.5c.5-.4.6-.9.2-1.3-.3-.4-.8-.5-1.3-.1l-2,1.5-.8-1.1,5.1-3.7h0Z"/>
    <path d="M777.7,155.6l.8,1.1-1.7,2.3,2.7-.9.5.7-1.7,2.3,2.7-1,.8,1.1-4.6,1.5-.7-.9,1.6-2.2-2.5.9-.7-.9,2.8-4h0Z"/>
    <path d="M780.5,166.3c0,0-.3-.1-.4-.1-.2-.1-.5-.3-.8-.6-.6-.8-.5-1.6,0-2,.7-.6,1.6-.4,2.9,1.3.4-.3.4-.6.2-.9-.2-.2-.3-.2-.5-.3h-.2l-.7-1.1c.8-.4,1.7-.3,2.5.7.7.9.5,2-.4,2.7l-2.2,1.7-.6-.8v-.6h.1ZM781.6,165.3c-.7-.9-1-1-1.3-.8-.2.1-.2.4,0,.7.3.4.8.5,1.2.2h0Z"/>
    <path d="M781.2,168.9c.3.4.7.5,1.1.4l2.5-4.1.9,1.2-1.7,2.5,2.9-.9.9,1.2-4.8,1.3c-1.2.3-1.9.2-2.4-.5,0-.1,0-.2-.2-.2h0c0-.1.9-.9.9-.9h0Z"/>
    <path d="M788,173.9c-.2.2-.3.7,0,1.1.3.4.8.5,1.1.3s.3-.6,0-1.1l-.4-.5,1-.7.4.5c.3.4.7.5,1,.3s.3-.6,0-1-.6-.4-.9-.2l-.8-1.2c.8-.5,2-.4,2.8.7s.7,2.3,0,2.8c-.4.3-.8.3-1.1.2-.2,0-.3-.1-.5-.1v.6c0,.4-.2.8-.7,1.1-.8.6-2,.4-2.8-.8-.9-1.2-.7-2.4,0-3l.9,1h0Z"/>
    <path d="M794.1,177.1l-1.5-2.1,1.1-.8,2.5,3.4-.9.7-5.6,1.2-.9-1.3,5.3-1.1h0Z"/>
    <path d="M795.8,180l-.8-.2.5-1.2,1.9.6.7.9-5.1,3.8-.9-1.2,3.7-2.7Z"/>
  </g>
  <g>
    <path d="M338.8,252.7l2.3-2.4c.1-.1.2-.2.3-.3.1-.2.3-.4.3-.7s-.2-.6-.7-.6-.8.3-.8.8h-1.4c0-1.3.9-2.1,2.2-2.1s2.2.8,2.2,1.9-.2.9-.5,1.3c-.1.2-.3.4-.5.5l-1.2,1.3h2.2v1.4h-4.4v-1.1h0Z"/>
    <path d="M346.1,247.4h1.5l-1.4,2c1.2-.1,2.3.9,2.3,2.2s-1,2.2-2.4,2.2-2.4-1-2.4-2.2.1-.9.3-1.2c.1-.2.2-.4.3-.5l1.8-2.5h0ZM347.1,251.5c0-.6-.4-1-.9-1s-.9.4-.9,1,.4,1,.9,1,.9-.4.9-1Z"/>
  </g>
  <g>
    <path d="M304.4,254l2.3-2.4c.1-.1.2-.2.3-.3.1-.2.3-.4.3-.7s-.2-.6-.7-.6-.8.3-.8.8h-1.4c0-1.3.9-2.1,2.2-2.1s2.2.8,2.2,1.9-.2.9-.5,1.3c-.1.2-.3.4-.5.5l-1.2,1.3h2.2v1.4h-4.4v-1.1h0Z"/>
    <path d="M311.9,250.1h-2.6v-1.4h4.2v1.2l-2.4,5.2h-1.6l2.4-5Z"/>
  </g>
  <g>
    <path d="M271,255l2.3-2.4c.1-.1.2-.2.3-.3.1-.2.3-.4.3-.7s-.2-.6-.7-.6-.8.3-.8.8h-1.4c0-1.3.9-2.1,2.2-2.1s2.2.8,2.2,1.9-.2.9-.5,1.3c-.1.2-.3.4-.5.5l-1.2,1.3h2.2v1.4h-4.4v-1.1h0Z"/>
    <path d="M276.6,253c.1-.1.3-.3.5-.4-.1-.1-.3-.2-.4-.3-.2-.2-.4-.5-.4-.9,0-.9.8-1.7,2.1-1.7s2.1.8,2.1,1.7-.2.7-.4.9c-.1.1-.2.2-.4.3.2.1.4.2.5.4.2.2.5.6.5,1.2,0,1-.9,1.9-2.4,1.9s-2.4-.9-2.4-1.9c.2-.6.5-1,.7-1.2ZM278.5,254.9c.6,0,.9-.4.9-.8s-.3-.8-.9-.8-.9.4-.9.8.3.8.9.8ZM278.5,252c.4,0,.7-.2.7-.6s-.3-.6-.7-.6-.7.3-.7.6.3.6.7.6Z"/>
  </g>
  <g>
    <path d="M236.6,255.7l2.3-2.4.3-.3c.1-.2.3-.4.3-.7s-.2-.6-.7-.6-.8.3-.8.8h-1.4c0-1.3.9-2.1,2.2-2.1s2.2.8,2.2,1.9-.2.9-.5,1.3c-.1.2-.3.4-.5.5l-1.2,1.3h2.2v1.4h-4.4v-1.1h0Z"/>
    <path d="M244,254.7c-1.2.1-2.3-.9-2.3-2.2s1-2.2,2.4-2.2,2.4,1,2.4,2.2-.1.9-.3,1.2c-.1.2-.2.4-.3.5l-1.7,2.5h-1.5l1.3-2h0ZM245,252.5c0-.6-.4-1-.9-1s-.9.4-.9,1,.4,1,.9,1,.9-.4.9-1Z"/>
  </g>
  <g>
    <path d="M204,255.7c.1.3.3.7.9.7s.9-.3.9-.7-.3-.6-.9-.6h-.6v-1.2h.6c.6,0,.8-.2.8-.6s-.3-.6-.8-.6-.7.2-.8.6h-1.5c.1-1.1.9-1.9,2.3-1.9s2.2.8,2.2,1.8-.2.8-.4,1-.3.2-.4.3c.2.1.4.2.5.3.2.2.5.6.5,1.2,0,1-.9,1.8-2.3,1.8s-2.3-.9-2.4-1.9l1.4-.2h0Z"/>
    <path d="M210.6,251.2c1.5,0,2.7,1.2,2.7,3.2s-1.2,3.2-2.7,3.2-2.7-1.2-2.7-3.2,1.2-3.2,2.7-3.2h0ZM210.6,252.6c-.6,0-1.3.6-1.3,1.8s.6,1.8,1.3,1.8,1.3-.6,1.3-1.8-.7-1.8-1.3-1.8h0Z"/>
  </g>
  <g>
    <path d="M171.1,257.2c.1.4.3.6.9.6s.9-.3.9-.7-.3-.6-.9-.6h-.6v-1.2h.6c.6,0,.8-.2.8-.6s-.3-.6-.8-.6-.7.2-.8.6h-1.5c.1-1.1.9-1.9,2.3-1.9s2.2.8,2.2,1.8-.2.8-.4,1-.3.2-.4.3c.2.1.4.2.5.3.2.2.5.6.5,1.2,0,1-.9,1.8-2.3,1.8s-2.3-.9-2.4-1.9h1.4Z"/>
    <path d="M176,254.5l-.6.4-.7-1.1,1.7-1.2h1.2v6.3h-1.6v-4.4h0Z"/>
  </g>
  <g>
    <path d="M137,257.9c.1.4.3.6.9.6s.9-.3.9-.7-.3-.6-.9-.6h-.6v-1.2h.6c.6,0,.8-.2.8-.6s-.3-.6-.8-.6-.7.2-.8.6h-1.5c.1-1.1.9-1.9,2.3-1.9s2.2.8,2.2,1.8-.2.8-.4,1c-.1.1-.3.2-.4.3.2.1.4.2.5.3.2.2.5.6.5,1.2,0,1-.9,1.8-2.3,1.8s-2.3-.9-2.4-1.9h1.4Z"/>
    <path d="M140.9,258.8l2.3-2.4c.1-.1.2-.2.3-.3.1-.2.3-.4.3-.7s-.2-.6-.7-.6-.8.3-.8.8h-1.4c0-1.3.9-2.1,2.2-2.1s2.2.8,2.2,1.9-.2.9-.5,1.3c-.1.2-.3.4-.5.5l-1.2,1.3h2.2v1.4h-4.4v-1.1h0Z"/>
  </g>
  <g>
    <path class="st2" d="M0,318.9s1.2,0,3.5-.1"/>
    <path class="st6" d="M10.4,318.6c68.1-1.8,450.6-11.9,582.9-18.9,65.3-7.2,122.5-4,180.3,42.5"/>
    <path class="st2" d="M776.3,344.4c.9.7,1.8,1.5,2.7,2.2"/>
  </g>
  <g>
    <path class="st2" d="M0,336s1.2,0,3.5-.1"/>
    <path class="st3" d="M10.6,335.8c68.4-1.8,450.6-11.9,582.8-18.9,77.6-.1,106.4-.1,165.9,42.8"/>
    <path class="st2" d="M762.1,361.7c.9.7,1.9,1.4,2.8,2.1"/>
  </g>
  <line class="st2" x1="629.7" y1=".3" x2="845.5" y2="285.8"/>
  <polygon points="147 164.1 147.9 165 146.1 165 147 164.1"/>
  <polygon points="147 175.3 146.1 174.4 147.9 174.4 147 175.3"/>
  <line class="st1" x1="147" y1="165" x2="147" y2="174.4"/>
  <g>
    <path d="M150.3,168.6l-.6.4-.4-.7,1.2-.9h.7v4.7h-.9v-3.5Z"/>
    <path d="M152.2,169.8c.1-.1.2-.2.4-.3-.1-.1-.2-.1-.3-.2-.1-.2-.3-.4-.3-.7,0-.7.6-1.3,1.5-1.3s1.5.6,1.5,1.3-.1.5-.3.7-.2.2-.3.2c.1.1.3.1.4.3.2.2.4.5.4.9,0,.7-.7,1.4-1.7,1.4s-1.7-.7-1.7-1.4c.1-.4.2-.7.4-.9ZM153.5,171.4c.5,0,.8-.3.8-.7s-.3-.7-.8-.7-.8.3-.8.7c.1.4.3.7.8.7ZM153.5,169.3c.4,0,.6-.3.6-.6s-.3-.6-.6-.6-.6.3-.6.6.3.6.6.6Z"/>
    <path d="M155.8,168.8c.1,0,.1-.1.2-.1.1-.1.2-.2.2-.4-.3,0-.5-.2-.5-.5s.2-.5.5-.5.5.2.5.5-.2.7-.3.9l-.3.3-.3-.2Z"/>
  </g>
  <polygon points="335.2 175.7 334.3 176.6 334.3 174.9 335.2 175.7"/>
  <polygon points="323.6 175.8 324.5 174.9 324.5 176.6 323.6 175.8"/>
  <line class="st1" x1="334.3" y1="175.7" x2="324.5" y2="175.7"/>
  <g>
    <path d="M326.7,179.1l-.6.4-.4-.7,1.2-.9h.7v4.7h-.9v-3.5h0Z"/>
    <path d="M328.7,180.3c.1-.1.2-.2.4-.3-.1-.1-.2-.1-.3-.2-.1-.2-.3-.4-.3-.7,0-.7.6-1.3,1.5-1.3s1.5.6,1.5,1.3-.1.5-.3.7c-.1.1-.2.2-.3.2.1.1.3.1.4.3.2.2.4.5.4.9,0,.7-.7,1.4-1.7,1.4s-1.7-.7-1.7-1.4c0-.4.2-.7.4-.9ZM330,181.9c.5,0,.8-.3.8-.7s-.3-.7-.8-.7-.8.3-.8.7.3.7.8.7ZM330,179.8c.4,0,.6-.3.6-.6s-.3-.6-.6-.6-.6.3-.6.6c-.1.3.2.6.6.6Z"/>
    <path d="M332.3,179.3c.1,0,.1-.1.2-.1.1-.1.2-.2.2-.4-.3,0-.5-.2-.5-.5s.2-.5.5-.5.5.2.5.5-.2.7-.3.9c-.1.1-.2.2-.3.3l-.3-.2Z"/>
  </g>
  <polygon points="366.2 247.6 365.3 248.4 365.3 246.7 366.2 247.6"/>
  <polygon points="354.8 247.6 355.7 246.7 355.7 248.4 354.8 247.6"/>
  <line class="st1" x1="365.3" y1="247.6" x2="355.7" y2="247.6"/>
  <g>
    <path d="M357.7,250.9l-.6.4-.4-.7,1.2-.9h.7v4.7h-.9v-3.5h0Z"/>
    <path d="M359.7,252.1c.1-.1.2-.2.4-.3-.1-.1-.2-.1-.3-.2-.1-.2-.3-.4-.3-.7,0-.7.6-1.3,1.5-1.3s1.5.6,1.5,1.3-.1.5-.3.7c-.1.1-.2.2-.3.2.1.1.3.1.4.3.2.2.4.5.4.9,0,.7-.7,1.4-1.7,1.4s-1.7-.7-1.7-1.4c0-.4.2-.7.4-.9ZM361,253.7c.5,0,.8-.3.8-.7s-.3-.7-.8-.7-.8.3-.8.7.3.7.8.7ZM361,251.6c.4,0,.6-.3.6-.6s-.3-.6-.6-.6-.6.3-.6.6.2.6.6.6Z"/>
    <path d="M363.3,251.1c.1,0,.1-.1.2-.1.1-.1.2-.2.2-.4-.3,0-.5-.2-.5-.5s.2-.5.5-.5.5.2.5.5-.2.7-.3.9c-.1.1-.2.2-.3.3l-.3-.2Z"/>
  </g>
  <path class="st8" d="M568,244.2h-16.2c-1.9,0-3.7-.7-5.1-2-1.4-1.3-2.1-3.1-2.2-5,0-.5-.1-.9-.3-1.3v-4.8c0-1.9-.3-3.8-.7-5.6.5,0,.9,0,1.4,0,3.3,0,6.6-1.1,9.2-3.4,1.5-1.3,1.6-3.5.4-4.9-1.3-1.5-3.5-1.6-4.9-.4-3,2.6-7.5,2.2-10-.7-.3-.4-.7-.7-1.1-.9-1.5-1.8-3.2-3.3-5.2-4.6,2.3-1.9,4-4.4,4.8-7.3.5-1.9-.6-3.8-2.5-4.3-1.9-.5-3.8.6-4.3,2.5-.5,1.8-1.7,3.4-3.3,4.3-1.6.9-3.6,1.2-5.4.7-.6-.2-1.1-.1-1.7,0-.1,0-.3,0-.4,0-.3,0-.6-.2-1-.2s0,0,0,0l-37.6.8c1.1-2,1.8-4.4,1.8-6.9s-1.6-3.5-3.5-3.5-3.5,1.6-3.5,3.5c0,3.9-3.2,7.1-7.1,7.1s-.2,0-.2,0l-19.9.4c1.1-2,1.7-4.3,1.7-6.8s-1.6-3.5-3.5-3.5-3.5,1.6-3.5,3.5c0,3.6-2.7,6.5-6.1,7l-22.4.5c1.1-2,1.8-4.4,1.8-6.9s-1.6-3.5-3.5-3.5-3.5,1.6-3.5,3.5c0,3.9-3.2,7.1-7.1,7.1s-.1,0-.2,0h-1.2c-.3,0-.5,0-.8,0s-.5,0-.7,0l-19.1.4c1.2-2,1.8-4.4,1.8-6.9s-1.6-3.5-3.5-3.5-3.5,1.6-3.5,3.5c0,3.9-3.2,7.1-7.1,7.1s-.5,0-.7,0l-20.8.4c1.1-2,1.8-4.4,1.8-6.9s-1.6-3.5-3.5-3.5-3.5,1.6-3.5,3.5c0,3.9-3.2,7.1-7.1,7.1s-.3,0-.5,0h-.2c-.4,0-.7,0-1.1,0s-.5,0-.8,0l-20.4.4c1.2-2.1,1.9-4.4,1.9-7s-1.6-3.5-3.5-3.5-3.5,1.6-3.5,3.5c0,3.9-3.2,7.1-7.1,7.1s-.7,0-1,.2l-33.3.7c-.6,0-1.3-.1-1.9-.1s-.8,0-1.2.2l-28.1.6c1.2-2.3,1.8-5,1.6-7.8v-8.1c0-.2,0-.4,0-.6s0-.4,0-.7c0-.1,0-.2,0-.3,0-3.9,3.2-7.1,7.1-7.1s3.5-1.6,3.5-3.5-1.6-3.5-3.5-3.5-5.2.8-7.3,2l-.2-23.6c.5-3.5,3.4-6.2,7-6.2s3.5-1.6,3.5-3.5-1.6-3.5-3.5-3.5-5,.7-7.1,2v-9.6c0-1.9-1.7-3.5-3.6-3.5h0c-1.9,0-3.5,1.6-3.5,3.5v11.3c-2-1.2-4.4-1.9-7-1.9s-3.5,1.6-3.5,3.5,1.6,3.5,3.5,3.5c3.9,0,7.1,3.2,7.1,7.1s0,.5,0,.8l.2,20.8c-2-1.2-4.4-1.8-6.9-1.8s-3.5,1.6-3.5,3.5,1.6,3.5,3.5,3.5c3.6,0,6.5,2.7,7,6.1v9.9c0,0,.1.3.1.3.2,1.9-.4,3.7-1.6,5.2-.9,1.1-2.1,1.9-3.5,2.3l-60.8,1.3c-.2,0-.5,0-.7,0s-.4,0-.7,0l-43.8.9c-2.6,0-5,.7-7.1,1.9l-.2-16.5c0-.3.1-.6.1-.9s0-.8,0-1.2c0-.2,0-.4,0-.6,0-3.9,3.2-7.1,7.1-7.1s3.5-1.6,3.5-3.5-1.6-3.5-3.5-3.5-5.2.8-7.4,2.1l-.2-22.7c.4-3.5,3.4-6.2,7-6.2s3.5-1.6,3.5-3.5-1.6-3.5-3.5-3.5-5,.7-7.1,2l-.2-19.9c0-.1,0-.2,0-.3s0-.1,0-.2c0,0,0,0,0-.1,0-3.9,3.2-7.1,7.1-7.1s3.5-1.6,3.5-3.5-1.6-3.5-3.5-3.5-5.1.8-7.3,2v-10.8c-.1-1.9-1.7-3.5-3.6-3.5h0c-1.9,0-3.5,1.6-3.5,3.5v10.8c-2-1.2-4.3-1.8-6.9-1.8s-3.5,1.6-3.5,3.5,1.6,3.5,3.5,3.5c3.7,0,6.7,2.8,7.1,6.3l.2,23.5c-2.1-1.2-4.5-1.9-7.1-1.9s-3.5,1.6-3.5,3.5,1.6,3.5,3.5,3.5c3.9,0,7.1,3.2,7.1,7.1s0,.5,0,.8l.2,20c-2-1.1-4.4-1.8-6.8-1.8s-3.5,1.6-3.5,3.5,1.6,3.5,3.5,3.5c3.4,0,6.2,2.4,6.9,5.6l.3,29.5c0,.5-.1,1.1-.1,1.6s0,.6.1.9v.6c-2.1-1.3-4.6-2-7.2-2s-3.5,1.6-3.5,3.5,1.6,3.5,3.5,3.5c3.9,0,7.1,3.2,7.1,7.1s0,.9.3,1.3l.2,18.9c-2.1-1.2-4.5-1.9-7-1.9s-3.5,1.6-3.5,3.5,1.6,3.5,3.5,3.5c3.9,0,7.1,3.2,7.1,7.1s0,.3,0,.5l.4,48.3c0,1.9,1.6,3.5,3.5,3.5h0c1.9,0,3.5-1.6,3.5-3.5l-.9-96c.6-3.3,3.5-5.9,7.1-5.9l10.8-.2c.4.1.8.2,1.2.2,3.9,0,7.1,3.2,7.1,7.1s1.6,3.5,3.5,3.5,3.5-1.6,3.5-3.5c0-2.8-.8-5.4-2.2-7.6l21.3-.5c3.6.4,6.4,3.4,6.4,7.1s1.6,3.5,3.5,3.5,3.5-1.6,3.5-3.5-.8-5.2-2.1-7.3l22.2-.5c.1,0,.2,0,.3,0,3.9,0,7.1,3.2,7.1,7.1s1.6,3.5,3.5,3.5,3.5-1.6,3.5-3.5-.8-5.2-2.1-7.4l12.9-.3c.3.1.7.2,1.1.2s.2,0,.4,0c.5,0,1-.1,1.5-.2l7.4-.2c3.3.6,5.8,3.5,5.8,7s1.6,3.5,3.5,3.5,3.5-1.6,3.5-3.5-.7-5.1-2-7.2l22-.5c3.2.7,5.6,3.5,5.6,6.9s1.6,3.5,3.5,3.5,3.5-1.6,3.5-3.5-.7-5.1-2-7.2l21.5-.5c.2,0,.4,0,.7,0,3.9,0,7.1,3.2,7.1,7.1s1.6,3.5,3.5,3.5,3.5-1.6,3.5-3.5-.8-5.3-2.1-7.4l24.2-.5c3.5.4,6.2,3.4,6.2,7s1.6,3.5,3.5,3.5,3.5-1.6,3.5-3.5-.8-5.2-2-7.3l20.8-.4c.3,0,.6.1.9.1,3.9,0,7.1,3.2,7.1,7.1s1.6,3.5,3.5,3.5,3.5-1.6,3.5-3.5c0-2.8-.8-5.3-2.2-7.5l22.8-.5c3.6.4,6.3,3.4,6.3,7.1s1.6,3.5,3.5,3.5,3.5-1.6,3.5-3.5-.8-5.2-2.1-7.3l22.3-.5c0,0,.2,0,.2,0,3.9,0,7.1,3.2,7.1,7.1s1.6,3.5,3.5,3.5,3.5-1.6,3.5-3.5-.8-5.2-2.1-7.4l71-1.5c.3,0,.5.1.8.1,9.7,0,17.7,7.9,17.7,17.7v11c0,0,0,0,0,.1,0,3.9-3.2,7.1-7.1,7.1h-15.5c-1.9,0-3.5,1.6-3.5,3.5s1.6,3.5,3.5,3.5h15.6c2.6,0,5.1-.7,7.2-2l.5,56.3c0,1.9,1.6,3.5,3.5,3.5h0c1.9,0,3.5-1.6,3.5-3.5l-.5-61.4c2.2,1.3,4.7,2,7.2,2s.2,0,.3,0h16.1c1.9,0,3.5-1.6,3.5-3.5s-1.6-3.5-3.5-3.5Z"/>
</svg>